<svg width="46" height="56" viewBox="0 0 46 56" fill="none" xmlns="http://www.w3.org/2000/svg">
<path d="M22.973 55.912C18.6157 55.912 14.7143 54.848 11.269 52.72C7.82365 50.5413 5.11298 47.4 3.13698 43.296C1.16098 39.192 0.172984 34.2267 0.172984 28.4C0.172984 22.5733 1.16098 17.608 3.13698 13.504C5.11298 9.4 7.82365 6.284 11.269 4.156C14.7143 1.97733 18.6157 0.887999 22.973 0.887999C27.381 0.887999 31.2823 1.97733 34.677 4.156C38.1223 6.284 40.833 9.4 42.809 13.504C44.785 17.608 45.773 22.5733 45.773 28.4C45.773 34.2267 44.785 39.192 42.809 43.296C40.833 47.4 38.1223 50.5413 34.677 52.72C31.2823 54.848 27.381 55.912 22.973 55.912ZM22.973 45.5C25.0503 45.5 26.849 44.9173 28.369 43.752C29.9397 42.5867 31.1557 40.7373 32.017 38.204C32.929 35.6707 33.385 32.4027 33.385 28.4C33.385 24.3973 32.929 21.1293 32.017 18.596C31.1557 16.0627 29.9397 14.2133 28.369 13.048C26.849 11.8827 25.0503 11.3 22.973 11.3C20.9463 11.3 19.1477 11.8827 17.577 13.048C16.057 14.2133 14.841 16.0627 13.929 18.596C13.0677 21.1293 12.637 24.3973 12.637 28.4C12.637 32.4027 13.0677 35.6707 13.929 38.204C14.841 40.7373 16.057 42.5867 17.577 43.752C19.1477 44.9173 20.9463 45.5 22.973 45.5Z" fill="#02897A"/>
</svg>
