<svg width="79" height="56" viewBox="0 0 79 56" fill="none" xmlns="http://www.w3.org/2000/svg">
<path d="M11.4001 55V6.36L16.7201 11.68H0.760127V1.8H23.7121V55H11.4001ZM55.9538 55.912C51.5965 55.912 47.6952 54.848 44.2498 52.72C40.8045 50.5413 38.0938 47.4 36.1178 43.296C34.1418 39.192 33.1538 34.2267 33.1538 28.4C33.1538 22.5733 34.1418 17.608 36.1178 13.504C38.0938 9.4 40.8045 6.284 44.2498 4.156C47.6952 1.97733 51.5965 0.887999 55.9538 0.887999C60.3618 0.887999 64.2632 1.97733 67.6578 4.156C71.1032 6.284 73.8138 9.4 75.7898 13.504C77.7658 17.608 78.7539 22.5733 78.7539 28.4C78.7539 34.2267 77.7658 39.192 75.7898 43.296C73.8138 47.4 71.1032 50.5413 67.6578 52.72C64.2632 54.848 60.3618 55.912 55.9538 55.912ZM55.9538 45.5C58.0312 45.5 59.8298 44.9173 61.3498 43.752C62.9205 42.5867 64.1365 40.7373 64.9978 38.204C65.9098 35.6707 66.3658 32.4027 66.3658 28.4C66.3658 24.3973 65.9098 21.1293 64.9978 18.596C64.1365 16.0627 62.9205 14.2133 61.3498 13.048C59.8298 11.8827 58.0312 11.3 55.9538 11.3C53.9272 11.3 52.1285 11.8827 50.5578 13.048C49.0378 14.2133 47.8218 16.0627 46.9098 18.596C46.0485 21.1293 45.6178 24.3973 45.6178 28.4C45.6178 32.4027 46.0485 35.6707 46.9098 38.204C47.8218 40.7373 49.0378 42.5867 50.5578 43.752C52.1285 44.9173 53.9272 45.5 55.9538 45.5Z" fill="#02897A"/>
</svg>
