<svg width="43" height="55" viewBox="0 0 43 55" fill="none" xmlns="http://www.w3.org/2000/svg">
<path d="M20.4524 54.912C16.7537 54.912 13.0804 54.4307 9.43239 53.468C5.83506 52.4547 2.74439 51.036 0.160391 49.212L5.02439 39.788C7.05106 41.2573 9.38172 42.4227 12.0164 43.284C14.7017 44.1453 17.4124 44.576 20.1484 44.576C23.2391 44.576 25.6711 43.968 27.4444 42.752C29.2177 41.536 30.1044 39.8387 30.1044 37.66C30.1044 36.292 29.7497 35.076 29.0404 34.012C28.3311 32.948 27.0644 32.1373 25.2404 31.58C23.4671 31.0227 20.9591 30.744 17.7164 30.744H4.11239L6.84839 0.799996H39.3004V10.68H11.2564L17.6404 5.056L15.7404 26.412L9.35639 20.788H20.6044C25.8737 20.788 30.1044 21.5227 33.2964 22.992C36.5391 24.4107 38.8951 26.3613 40.3644 28.844C41.8337 31.3267 42.5684 34.1387 42.5684 37.28C42.5684 40.4213 41.7831 43.3347 40.2124 46.02C38.6417 48.6547 36.2097 50.808 32.9164 52.48C29.6737 54.1013 25.5191 54.912 20.4524 54.912Z" fill="white"/>
</svg>
