<svg xmlns="http://www.w3.org/2000/svg" width="528" height="392" fill="none"><path fill="#F5F5F5" d="M77.333 351.639c103.09 53.815 270.255 53.815 373.345 0 103.09-53.816 103.102-141.062 0-194.877s-270.255-53.815-373.358 0c-103.102 53.815-103.09 141.061.013 194.877Z"/><path fill="#02897A" d="M50.666 171.413s-.613-13.818-8.19-21.855c-7.578-8.036-16.148-6.014-19.152-4.287-3.004 1.727-4.819 6.309.637 9.237 5.457 2.927 17.055 8.758 19.226 14.381l7.479 2.524Z"/><path stroke="#fff" stroke-linecap="round" stroke-miterlimit="10" stroke-width=".997" d="M26.646 146.643c4.672 1.115 18.27 7.791 20.5 21.597"/><path fill="#02897A" d="M47.147 168.24c-.65-3.467-4.132-5.696-9.895-4.422s-4.904 1.078-12.163-.368c-7.258-1.445-12.04 1.752-12.408 4.521-.417 3.013 5.48 4.018 9.931 5.733 4.451 1.715 7.578 4.03 6.744 7.999-.711 3.393 0 6.199 5.235 7.154 4.647.845 9.417-2.07 11.538 2.23a6.814 6.814 0 0 0 6.937 3.377 6.823 6.823 0 0 0 2.553-.927c9.76-11.172-8.472-25.297-8.472-25.297Z"/><path stroke="#fff" stroke-linecap="round" stroke-miterlimit="10" stroke-width=".997" d="M34.592 181.923a20.507 20.507 0 0 1 10.544-5.157"/><path stroke="#fff" stroke-linecap="round" stroke-miterlimit="10" stroke-width=".997" d="M17.855 166.182c7.504.147 29.819 7.926 36.023 19.821"/><path fill="#37474F" d="M62.006 244.216a28.303 28.303 0 0 1-8.165-3.515c-2.122-1.225-24.67-14.198-35.557-20.532a12.67 12.67 0 0 0-11.513-.171c-.74.399-1.36.992-1.79 1.715h-.405v1.396a4.3 4.3 0 0 0 2.563 3.492l35.703 20.604c1.877 1.066 5.15 3.051 5.947 4.668l-.552.318v1.409l16.761-9.665v-1.409l-2.992 1.69Z"/><path fill="#455A64" d="M6.771 218.552c-3.065 1.764-2.894 4.716.368 6.603l35.704 20.568c2.648 1.519 8.092 4.9 5.394 6.395l16.761-9.666c-2.66 1.556-8.325-1.556-11.157-3.197-2.121-1.225-24.67-14.198-35.557-20.544a12.71 12.71 0 0 0-11.513-.159Z"/><path fill="#37474F" d="m66.15 240.321-16.258 9.383a5.557 5.557 0 0 0-2.947 4.9 5.545 5.545 0 0 0 2.947 4.901l21.8 12.581a6.538 6.538 0 0 0 5.91 0l16.258-9.384a5.534 5.534 0 0 0 0-9.8l-21.8-12.581a6.525 6.525 0 0 0-5.91 0Z"/><path fill="#BA68C8" d="m49.893 249.704 16.258-9.383a6.525 6.525 0 0 1 5.91 0l21.8 12.568c1.63.944 1.63 2.451 0 3.418l-16.222 9.372a6.525 6.525 0 0 1-5.91 0l-21.836-12.606c-1.68-.906-1.68-2.45 0-3.369Z"/><path fill="#37474F" d="M143.848 293.499h-.393a5.313 5.313 0 0 0-2.158-2.107l-43.955-25.358c-1.9-1.09-3.678-2.181-2.452-4.961v-1.397l-16.92 9.8v1.397a9.81 9.81 0 0 1 8.313 1.605c1.692 1.065 30.554 17.664 43.955 25.358a12.671 12.671 0 0 0 11.452.208 3.672 3.672 0 0 0 2.182-3.099l-.024-1.446Z"/><path fill="#455A64" d="M86.308 271.032c1.692 1.054 30.554 17.665 43.955 25.358a12.712 12.712 0 0 0 11.452.208c3.053-1.764 2.894-4.728-.368-6.603l-43.955-25.358c-1.9-1.09-3.678-2.192-2.452-4.961l-16.92 9.8a9.817 9.817 0 0 1 8.288 1.556Z"/><path fill="#37474F" d="M129.442 289.493a.727.727 0 0 0-.496.686.722.722 0 0 0 .496.686 2.626 2.626 0 0 0 2.379 0 .725.725 0 0 0 .358-1.109.725.725 0 0 0-.358-.263 2.631 2.631 0 0 0-2.379 0ZM121.129 284.703a.733.733 0 0 0 0 1.384 2.627 2.627 0 0 0 2.378 0 .733.733 0 0 0 0-1.384 2.626 2.626 0 0 0-2.378 0ZM112.816 279.926a.722.722 0 0 0 0 1.371 2.642 2.642 0 0 0 2.391 0 .72.72 0 0 0 0-1.371 2.643 2.643 0 0 0-2.391 0ZM104.515 275.124a.72.72 0 0 0-.359 1.108.727.727 0 0 0 .359.263 2.631 2.631 0 0 0 2.379 0 .72.72 0 0 0 0-1.371 2.617 2.617 0 0 0-2.379 0ZM96.202 270.37a.725.725 0 0 0-.496.686.721.721 0 0 0 .496.686 2.629 2.629 0 0 0 2.378 0 .725.725 0 0 0 .36-1.109.725.725 0 0 0-.36-.263 2.627 2.627 0 0 0-2.378 0Z"/><path fill="#F0F0F0" d="M74.648 265.703a5.379 5.379 0 0 1-2.612-.612l-21.8-12.581c-.551-.319-.883-.723-.883-1.103 0-.379.332-.796.883-1.114l16.258-9.384a5.871 5.871 0 0 1 5.223 0L93.58 253.49c.564.318.883.723.883 1.102 0 .38-.32.797-.883 1.115l-16.258 9.384a5.365 5.365 0 0 1-2.673.612Z"/><path fill="#fff" d="M69.056 240.982a4.701 4.701 0 0 1 2.268.515l21.8 12.581c.442.257.54.478.54.527 0 .049-.098.257-.54.514l-16.258 9.384a5.252 5.252 0 0 1-4.536 0l-21.751-12.581c-.442-.258-.54-.478-.54-.515 0-.037.098-.269.54-.527l16.258-9.383a4.7 4.7 0 0 1 2.268-.515h-.049Zm0-1.384a6.142 6.142 0 0 0-2.955.71l-16.258 9.384c-1.63.931-1.63 2.45 0 3.406l21.8 12.568a6.5 6.5 0 0 0 5.91 0l16.258-9.371c1.63-.943 1.63-2.45 0-3.418L72.06 240.321a6.14 6.14 0 0 0-3.004-.723Z"/><path fill="#37474F" d="m53.705 241.105 16.258-9.372a6.538 6.538 0 0 1 5.91 0l21.788 12.569c1.63.943 1.63 2.45 0 3.406l-16.246 9.383a6.525 6.525 0 0 1-5.91 0l-21.8-12.593c-1.63-.919-1.63-2.45 0-3.393Z"/><path fill="#fff" d="M68.348 250.236a.284.284 0 0 1-.166.037.656.656 0 0 1-.213-.085l-.083-.048c-.081-.047-.129-.086-.141-.118-.013-.037.006-.07.057-.1l.808-.468-3.296-1.893-.737.583c-.047.027-.126.024-.238-.011a1.441 1.441 0 0 1-.295-.125c-.077-.044-.082-.096-.013-.155l1.044-.932a.509.509 0 0 1 .192-.059c.073-.013.129-.008.167.014l3.83 2.199.692-.401c.051-.03.107-.04.167-.03.06.005.13.03.212.077l.083.048c.082.047.129.089.142.126.013.032-.007.063-.058.092l-2.154 1.249Zm2.789-1.616c-.039.022-.114.018-.225-.011a1.319 1.319 0 0 1-.283-.118c-.05-.029-.079-.053-.083-.07l-.64-2.068a1.486 1.486 0 0 0-.18-.422 1.098 1.098 0 0 0-.906-.394 1.33 1.33 0 0 0-.628.186.95.95 0 0 0-.308.252c-.051.079-.1.177-.147.293-.013.067-.032.108-.057.122-.052.03-.152.036-.302.02a.87.87 0 0 1-.315-.078c-.09-.051-.113-.134-.07-.248a.981.981 0 0 1 .255-.37c.132-.131.282-.245.449-.342a2.628 2.628 0 0 1 1.225-.361 2.06 2.06 0 0 1 1.15.26c.15.086.267.179.353.277.09.096.165.221.225.374s.123.366.187.64l.459 1.343 1.545-.895a.248.248 0 0 1 .16-.034c.06.005.13.03.212.077l.084.048c.08.047.128.089.141.126.013.032-.006.063-.058.092l-2.243 1.301Zm.596-3.326c-.188.109-.335.133-.442.071l-.47-.269c-.106-.062-.066-.147.122-.256l.141-.082c.188-.109.336-.132.443-.071l.469.27c.107.061.066.146-.122.255l-.14.082Zm2.596 1.491c-.188.108-.335.132-.443.071l-.469-.27c-.107-.061-.066-.146.122-.255l.14-.082c.189-.109.336-.133.444-.071l.469.269c.107.062.066.147-.122.256l-.14.082Zm2.295-1.293c-.393.227-.893.298-1.501.21-.604-.09-1.289-.355-2.056-.796-.766-.44-1.23-.834-1.388-1.182-.155-.35-.036-.639.358-.867.397-.23.9-.301 1.507-.214.608.088 1.295.352 2.062.792.767.44 1.228.836 1.382 1.186.155.35.034.64-.364.871Zm-.54-.318c.184-.106.195-.265.032-.477-.16-.215-.555-.504-1.19-.868-.633-.364-1.137-.591-1.509-.682-.368-.093-.644-.086-.828.02-.184.107-.194.266-.031.478.159.209.557.497 1.195.864.639.366 1.142.596 1.51.689.364.091.638.083.822-.024Zm3.483-1.387c-.394.227-.894.297-1.502.21-.603-.09-1.288-.356-2.055-.796-.767-.44-1.23-.834-1.389-1.182-.154-.35-.035-.639.358-.867.397-.23.9-.301 1.508-.214.607.088 1.295.352 2.061.792.767.44 1.228.836 1.383 1.186.154.35.033.64-.364.871Zm-.54-.318c.183-.106.194-.266.03-.477-.158-.215-.554-.504-1.188-.868-.634-.364-1.137-.591-1.51-.682-.368-.093-.644-.086-.828.02-.183.107-.194.266-.03.478.158.209.556.497 1.195.864.638.366 1.141.596 1.51.689.363.091.637.083.82-.024Z"/><path fill="#455A64" d="m204.663 237.148-38.414 22.16a5.544 5.544 0 0 0-2.961 4.9 5.537 5.537 0 0 0 2.961 4.901l71.653 41.344a6.602 6.602 0 0 0 5.91 0l38.413-22.161a5.53 5.53 0 0 0 2.962-4.9 5.536 5.536 0 0 0-2.962-4.9l-71.652-41.344a6.527 6.527 0 0 0-5.91 0Z"/><path fill="#455A64" d="m204.663 237.148-38.414 22.16a5.544 5.544 0 0 0-2.961 4.9 5.537 5.537 0 0 0 2.961 4.901l71.653 41.344a6.602 6.602 0 0 0 5.91 0l38.413-22.161a5.53 5.53 0 0 0 2.962-4.9 5.536 5.536 0 0 0-2.962-4.9l-71.652-41.344a6.527 6.527 0 0 0-5.91 0Z"/><path fill="#455A64" d="m204.663 237.148-38.414 22.16a5.544 5.544 0 0 0-2.961 4.9 5.537 5.537 0 0 0 2.961 4.901l71.653 41.344a6.602 6.602 0 0 0 5.91 0l38.413-22.161a5.53 5.53 0 0 0 2.962-4.9 5.536 5.536 0 0 0-2.962-4.9l-71.652-41.344a6.527 6.527 0 0 0-5.91 0Z"/><path fill="#000" d="m204.663 237.148-38.414 22.16a5.544 5.544 0 0 0-2.961 4.9 5.537 5.537 0 0 0 2.961 4.901l71.653 41.344a6.602 6.602 0 0 0 5.91 0l38.413-22.161a5.53 5.53 0 0 0 2.962-4.9 5.536 5.536 0 0 0-2.962-4.9l-71.652-41.344a6.527 6.527 0 0 0-5.91 0Z" opacity=".1"/><path fill="#455A64" d="m240.857 254.604-30.284-17.456a6.527 6.527 0 0 0-5.91 0l-38.414 22.16a5.544 5.544 0 0 0-2.961 4.9 5.537 5.537 0 0 0 2.961 4.901l71.653 41.344a6.126 6.126 0 0 0 2.955.698v-56.547Z"/><path fill="#455A64" d="m237.915 304.034-71.666-41.344c-1.63-.931-1.63-2.45 0-3.406l38.414-22.136a6.524 6.524 0 0 1 5.91 0l71.652 41.344c1.631.931 1.631 2.45 0 3.406l-38.413 22.136a6.499 6.499 0 0 1-5.897 0Z"/><path fill="#455A64" d="m237.915 304.034-71.666-41.344c-1.63-.931-1.63-2.45 0-3.406l38.414-22.136a6.524 6.524 0 0 1 5.91 0l71.652 41.344c1.631.931 1.631 2.45 0 3.406l-38.413 22.136a6.499 6.499 0 0 1-5.897 0Z"/><path fill="#455A64" d="m237.915 304.034-71.666-41.344c-1.63-.931-1.63-2.45 0-3.406l38.414-22.136a6.524 6.524 0 0 1 5.91 0l71.652 41.344c1.631.931 1.631 2.45 0 3.406l-38.413 22.136a6.499 6.499 0 0 1-5.897 0Z"/><path fill="#fff" d="m237.915 304.034-71.666-41.344c-1.63-.931-1.63-2.45 0-3.406l38.414-22.136a6.524 6.524 0 0 1 5.91 0l71.652 41.344c1.631.931 1.631 2.45 0 3.406l-38.413 22.136a6.499 6.499 0 0 1-5.897 0Z" opacity=".2"/><path fill="#fff" d="m175.556 263.51 36.427-21.009a2.574 2.574 0 0 1 2.354 0l58.583 33.848a.72.72 0 0 1 .346 1.095.714.714 0 0 1-.346.264l-36.415 21.01a2.605 2.605 0 0 1-2.367 0l-58.582-33.786a.724.724 0 0 1 0-1.422Z"/><path fill="#455A64" d="M260.646 291.55a4.158 4.158 0 0 1-3.8 0c-1.055-.6-1.055-1.579 0-2.192a4.232 4.232 0 0 1 3.8 0c1.055.613 1.055 1.592 0 2.192Z"/><path fill="#000" d="M260.646 291.55a4.158 4.158 0 0 1-3.8 0c-1.055-.6-1.055-1.579 0-2.192a4.232 4.232 0 0 1 3.8 0c1.055.613 1.055 1.592 0 2.192Z" opacity=".1"/><path fill="#455A64" d="M188.454 249.913a1.012 1.012 0 0 1-.956 0 .293.293 0 0 1 0-.551 1.009 1.009 0 0 1 .956 0c.056.02.105.058.139.107a.296.296 0 0 1-.139.444ZM186.921 254.298a2.154 2.154 0 0 1-1.937 0 .585.585 0 0 1-.29-.9.593.593 0 0 1 .29-.215 2.171 2.171 0 0 1 1.937 0 .584.584 0 0 1 .291.901.588.588 0 0 1-.291.214ZM188.283 252.351c-.356-.209-.344-.552 0-.772l6.351-3.675a1.518 1.518 0 0 1 1.324 0c.356.208.331.551 0 .771l-6.339 3.676a1.488 1.488 0 0 1-1.336 0Z"/><path fill="#455A64" d="M188.453 249.398a.295.295 0 0 1 0 .552 1.02 1.02 0 0 1-.956 0M186.921 254.298a2.154 2.154 0 0 1-1.937 0 .585.585 0 0 1-.29-.9.593.593 0 0 1 .29-.215 2.171 2.171 0 0 1 1.937 0 .584.584 0 0 1 .291.901.588.588 0 0 1-.291.214ZM188.283 252.351c-.356-.209-.344-.552 0-.772l6.351-3.675a1.518 1.518 0 0 1 1.324 0c.356.208.331.551 0 .771l-6.339 3.676a1.488 1.488 0 0 1-1.336 0Z"/><path fill="#455A64" d="M188.453 249.398a.295.295 0 0 1 0 .552 1.02 1.02 0 0 1-.956 0M186.921 254.298a2.154 2.154 0 0 1-1.937 0 .585.585 0 0 1-.29-.9.593.593 0 0 1 .29-.215 2.171 2.171 0 0 1 1.937 0 .584.584 0 0 1 .291.901.588.588 0 0 1-.291.214ZM188.283 252.351c-.356-.209-.344-.552 0-.772l6.351-3.675a1.518 1.518 0 0 1 1.324 0c.356.208.331.551 0 .771l-6.339 3.676a1.488 1.488 0 0 1-1.336 0Z"/><path fill="#000" d="M188.454 249.913a1.012 1.012 0 0 1-.956 0 .293.293 0 0 1 0-.551 1.009 1.009 0 0 1 .956 0c.056.02.105.058.139.107a.296.296 0 0 1-.139.444Z" opacity=".1"/><path fill="#000" d="M188.453 249.398a.295.295 0 0 1 0 .552 1.02 1.02 0 0 1-.956 0M186.921 254.298a2.154 2.154 0 0 1-1.937 0 .585.585 0 0 1-.29-.9.593.593 0 0 1 .29-.215 2.171 2.171 0 0 1 1.937 0 .584.584 0 0 1 .291.901.588.588 0 0 1-.291.214ZM188.283 252.351c-.356-.209-.344-.552 0-.772l6.351-3.675a1.518 1.518 0 0 1 1.324 0c.356.208.331.551 0 .771l-6.339 3.676a1.488 1.488 0 0 1-1.336 0Z" opacity=".1"/><path fill="#455A64" d="m459.899 227.531 60.581 34.938a5.533 5.533 0 0 1 0 9.8l-93.833 54.134a6.527 6.527 0 0 1-5.91 0l-60.569-34.95a5.541 5.541 0 0 1-2.961-4.9 5.533 5.533 0 0 1 2.961-4.9l93.882-54.122a6.512 6.512 0 0 1 5.849 0Z"/><path fill="#455A64" d="m459.899 227.531 60.581 34.938a5.533 5.533 0 0 1 0 9.8l-93.833 54.134a6.527 6.527 0 0 1-5.91 0l-60.569-34.95a5.541 5.541 0 0 1-2.961-4.9 5.533 5.533 0 0 1 2.961-4.9l93.882-54.122a6.512 6.512 0 0 1 5.849 0Z"/><path fill="#000" d="m459.899 227.531 60.581 34.938a5.533 5.533 0 0 1 0 9.8l-93.833 54.134a6.527 6.527 0 0 1-5.91 0l-60.569-34.95a5.541 5.541 0 0 1-2.961-4.9 5.533 5.533 0 0 1 2.961-4.9l93.882-54.122a6.512 6.512 0 0 1 5.849 0Z" opacity=".2"/><path fill="#455A64" d="m401.537 257.79 52.514-30.258a6.495 6.495 0 0 1 5.897 0l60.581 34.937a5.545 5.545 0 0 1 2.962 4.9 5.53 5.53 0 0 1-2.962 4.9l-93.832 54.134a6.126 6.126 0 0 1-2.955.698v-11.784l-22.205-57.527Z"/><path fill="#455A64" d="m426.647 320.009 93.833-54.134c1.631-.931 1.631-2.45 0-3.406l-60.581-34.937a6.502 6.502 0 0 0-5.898 0l-93.833 54.133c-1.63.931-1.63 2.45 0 3.406l60.569 34.938a6.54 6.54 0 0 0 5.91 0Z"/><path fill="#000" d="m426.647 320.009 93.833-54.134c1.631-.931 1.631-2.45 0-3.406l-60.581-34.937a6.502 6.502 0 0 0-5.898 0l-93.833 54.133c-1.63.931-1.63 2.45 0 3.406l60.569 34.938a6.54 6.54 0 0 0 5.91 0Z" opacity=".1"/><path fill="#FAFAFA" d="m511.174 266.696-58.583-33.799a2.682 2.682 0 0 0-2.366 0l-80.751 46.551a.72.72 0 0 0-.346 1.095.722.722 0 0 0 .346.265l58.583 33.798a2.668 2.668 0 0 0 2.366 0l80.751-46.551a.72.72 0 0 0 .346-1.095.714.714 0 0 0-.346-.264Z"/><path fill="#455A64" d="M393.015 301.093a4.158 4.158 0 0 0 3.801 0 1.15 1.15 0 0 0 0-2.192 4.158 4.158 0 0 0-3.801 0 1.15 1.15 0 0 0 0 2.192Z"/><path fill="#000" d="M393.015 301.093a4.158 4.158 0 0 0 3.801 0 1.15 1.15 0 0 0 0-2.192 4.158 4.158 0 0 0-3.801 0 1.15 1.15 0 0 0 0 2.192Z" opacity=".3"/><path fill="#455A64" d="M486.885 246.949a1.05 1.05 0 0 0 .969 0 .297.297 0 0 0 .192-.276.296.296 0 0 0-.192-.276 1.05 1.05 0 0 0-.969 0 .297.297 0 0 0-.192.276.296.296 0 0 0 .192.276ZM488.381 251.358a2.129 2.129 0 0 0 1.925 0 .59.59 0 0 0 .29-.9.598.598 0 0 0-.29-.215 2.142 2.142 0 0 0-1.925 0 .596.596 0 0 0-.402.558.587.587 0 0 0 .402.557ZM487.069 249.398c.356-.208.331-.551 0-.772l-6.351-3.675a1.453 1.453 0 0 0-1.324 0c-.356.196-.343.539 0 .76l6.351 3.675a1.448 1.448 0 0 0 1.324.012Z"/><g fill="#000" opacity=".3"><path d="M486.885 246.948a1.05 1.05 0 0 0 .969 0 .297.297 0 0 0 .192-.276.296.296 0 0 0-.192-.276 1.05 1.05 0 0 0-.969 0 .297.297 0 0 0-.192.276.296.296 0 0 0 .192.276ZM488.381 251.358a2.142 2.142 0 0 0 1.925 0 .598.598 0 0 0 .401-.558.587.587 0 0 0-.401-.557 2.136 2.136 0 0 0-1.925 0 .588.588 0 0 0 0 1.115ZM487.069 249.398c.356-.208.331-.551 0-.772l-6.351-3.675a1.453 1.453 0 0 0-1.324 0c-.356.196-.343.539 0 .76l6.351 3.675a1.448 1.448 0 0 0 1.324.012Z" opacity=".3"/></g><path fill="#455A64" d="M154.797 131.661 55.484 188.98a5.53 5.53 0 0 0-2.962 4.9 5.534 5.534 0 0 0 2.962 4.9l71.665 41.332a6.524 6.524 0 0 0 5.91 0l99.313-57.319a5.547 5.547 0 0 0 0-9.8l-71.665-41.332a6.527 6.527 0 0 0-5.91 0Z"/><path fill="#000" d="M154.797 131.661 55.484 188.98a5.53 5.53 0 0 0-2.962 4.9 5.534 5.534 0 0 0 2.962 4.9l71.665 41.332a6.524 6.524 0 0 0 5.91 0l99.313-57.319a5.547 5.547 0 0 0 0-9.8l-71.665-41.332a6.527 6.527 0 0 0-5.91 0Z" opacity=".2"/><path fill="#455A64" d="m130.055 145.932-74.62 43.048a5.532 5.532 0 0 0-2.961 4.9 5.535 5.535 0 0 0 2.96 4.9l71.666 41.332c.91.481 1.926.725 2.955.711v-94.891Z"/><path fill="#000" d="m130.055 145.932-74.62 43.048a5.532 5.532 0 0 0-2.961 4.9 5.535 5.535 0 0 0 2.96 4.9l71.666 41.332c.91.481 1.926.725 2.955.711v-94.891Z" opacity=".1"/><path fill="#455A64" d="m55.435 188.98 99.313-57.319a6.527 6.527 0 0 1 5.91 0l71.665 41.332c1.631.943 1.631 2.45 0 3.406l-99.313 57.319a6.54 6.54 0 0 1-5.91 0l-71.665-41.333c-1.63-.943-1.63-2.474 0-3.405Z"/><path fill="#455A64" d="M102.345 129.958 42.266 95.327a5.656 5.656 0 0 0-.71 2.879l5.137 85.874a6.818 6.818 0 0 0 2.979 4.998 6.34 6.34 0 0 0 5.714-.098l48.001-27.649-1.042-31.373Z"/><path fill="#000" d="M102.345 129.958 42.266 95.327a5.656 5.656 0 0 0-.71 2.879l5.137 85.874a6.818 6.818 0 0 0 2.979 4.998 6.34 6.34 0 0 0 5.714-.098l48.001-27.649-1.042-31.373Z" opacity=".2"/><path fill="#455A64" d="m66.519 188.98 88.279-50.925a6.535 6.535 0 0 1 5.909 0l2.453 1.385c1.63.943 1.63 2.45 0 3.405L74.88 193.77a6.538 6.538 0 0 1-5.909 0l-2.452-1.385c-1.63-.943-1.63-2.474 0-3.405Z"/><path fill="#000" d="m66.519 188.98 88.279-50.925a6.535 6.535 0 0 1 5.909 0l2.453 1.385c1.63.943 1.63 2.45 0 3.405L74.88 193.77a6.538 6.538 0 0 1-5.909 0l-2.452-1.385c-1.63-.943-1.63-2.474 0-3.405Z" opacity=".1"/><path fill="#455A64" d="m77.64 195.362 88.278-50.924a6.602 6.602 0 0 1 5.91 0l27.329 15.778c1.631.931 1.631 2.45 0 3.406l-88.278 50.924a6.527 6.527 0 0 1-5.91 0l-27.33-15.778c-1.667-.931-1.667-2.463 0-3.406Z"/><path fill="#000" d="m77.64 195.362 88.278-50.924a6.602 6.602 0 0 1 5.91 0l27.329 15.778c1.631.931 1.631 2.45 0 3.406l-88.278 50.924a6.527 6.527 0 0 1-5.91 0l-27.33-15.778c-1.667-.931-1.667-2.463 0-3.406Z" opacity=".1"/><path fill="#455A64" d="m149.623 198.559 27.33-15.766a6.535 6.535 0 0 1 5.909 0l10.704 6.187c1.631.931 1.631 2.45 0 3.405l-27.329 15.766a6.527 6.527 0 0 1-5.91 0l-10.716-6.186c-1.619-.931-1.619-2.462.012-3.406Z"/><path fill="#000" d="m149.623 198.559 27.33-15.766a6.535 6.535 0 0 1 5.909 0l10.704 6.187c1.631.931 1.631 2.45 0 3.405l-27.329 15.766a6.527 6.527 0 0 1-5.91 0l-10.716-6.186c-1.619-.931-1.619-2.462.012-3.406Z" opacity=".1"/><path fill="#393939" d="m158.083 167.799 2.746-1.593c.123-.073.111-.183 0-.257l-3.494-1.984a.51.51 0 0 0-.466 0l-2.746 1.58c-.123.073-.099.196 0 .269l3.42 1.973a.542.542 0 0 0 .54.012Zm-6.045-6.603-2.759 1.58c-.11.074-.098.184 0 .27l3.421 1.972a.486.486 0 0 0 .454 0l2.759-1.58c.11-.074.098-.184 0-.27l-3.421-1.972a.497.497 0 0 0-.454 0Zm-8.889 5.121-4.659 2.695c-.123 0-.111.183 0 .257l3.421 1.972a.52.52 0 0 0 .466 0l4.659-2.695c.11-.061.098-.184 0-.257l-3.421-1.972a.5.5 0 0 0-.466-.062v.062Zm4.904-2.806-2.758 1.593c-.111.061-.098.184 0 .257l3.457 1.96a.5.5 0 0 0 .454 0l2.759-1.592c.11-.062.098-.184 0-.258l-3.421-1.972a.503.503 0 0 0-.527-.049l.036.061Zm-10.802 6.223-2.746 1.593c-.123.061-.11.184 0 .257l3.421 1.985a.522.522 0 0 0 .466 0l2.746-1.58c.123-.074.098-.196 0-.27l-3.421-2.021a.54.54 0 0 0-.502-.025l.036.061Zm-4.021 2.328-2.747 1.58c-.122.074-.11.196 0 .27l3.421 1.972a.567.567 0 0 0 .466 0l2.747-1.592c.122-.074.098-.184 0-.27l-3.421-1.972a.486.486 0 0 0-.503-.049l.037.061Zm13.487 8.012 2.759-1.581c.11-.073.098-.183 0-.269l-3.421-1.972a.486.486 0 0 0-.454 0l-2.759 1.58c-.11.073-.098.184 0 .269l3.421 1.973a.492.492 0 0 0 .405-.062l.049.062Zm-4.022 2.327 2.759-1.592c.11-.062.098-.184 0-.258l-3.421-1.972a.471.471 0 0 0-.453 0l-2.759 1.593c-.11.061-.098.183 0 .257l3.421 1.972a.498.498 0 0 0 .38-.061l.073.061Zm-4.021 2.316 2.758-1.581c.111-.073.099-.196 0-.269l-3.506-2.071a.556.556 0 0 0-.227-.05.556.556 0 0 0-.227.05l-2.759 1.593c-.11.061-.098.184 0 .257l3.421 1.985a.498.498 0 0 0 .491.024l.049.062Zm-4.022 2.327 2.759-1.592c.11-.074.098-.184 0-.27l-3.421-1.972a.486.486 0 0 0-.454 0l-2.758 1.58c-.111.074-.098.184 0 .27l3.421 1.972a.542.542 0 0 0 .404-.049l.049.061Zm19.458-16.868 2.747-1.593c.122 0 .11-.184 0-.257l-3.421-1.973a.538.538 0 0 0-.466 0l-2.746 1.593c-.123.061-.099.184 0 .257l3.42 1.973a.51.51 0 0 0 .417-.062l.049.062Zm-3.372 7.582 6.131-3.54c.123-.073.098-.184 0-.269l-8.313-4.79a.486.486 0 0 0-.454 0l-3.175 1.825c-.111.074-.098.184 0 .27l4.401 2.535c.135.074.148.196 0 .258l-2.538 1.47c-.11.061-.098.183 0 .257l3.421 1.972a.494.494 0 0 0 .246.036.488.488 0 0 0 .232-.085l.049.061Zm-21.603-3.442-2.747 1.593c-.122.061-.11.183 0 .257l3.421 1.972a.524.524 0 0 0 .466 0l2.746-1.592c.123-.062.099-.184 0-.258l-3.42-1.972a.51.51 0 0 0-.466 0Zm-4.022 2.328-2.746 1.58c-.123.073-.111.184 0 .269l3.421 1.973a.52.52 0 0 0 .465 0l2.747-1.581c.122-.073.098-.183 0-.269l-3.421-1.972a.484.484 0 0 0-.429 0h-.037Zm-19.151 26.558a.482.482 0 0 0 .453 0l2.747-1.58c.122-.074.11-.184 0-.27l-3.421-1.972a.51.51 0 0 0-.466 0l-2.746 1.58c-.123.074-.099.184 0 .27l3.433 1.972Zm-13.022-7.999-2.758 1.58c-.11.074-.098.184 0 .27l3.42 1.972a.496.496 0 0 0 .454 0l2.759-1.58c.11-.074.098-.184 0-.27l-3.42-1.972a.485.485 0 0 0-.418 0h-.037Zm7.075 5.782a.509.509 0 0 0 .454 0l2.746-1.593c.123 0 .11-.183 0-.257l-3.433-1.972a.497.497 0 0 0-.454 0l-2.746 1.592c-.123.062-.11.184 0 .258l3.433 1.972Zm13.401 3.834 2.759-1.592c.11-.062.098-.184 0-.258l-3.421-1.972a.509.509 0 0 0-.454 0l-2.758 1.593c-.111.061-.098.183 0 .257l3.421 1.972a.5.5 0 0 0 .49 0h-.037Zm-4.475 2.303a.486.486 0 0 0 .454 0l2.758-1.58c.111-.074.098-.196 0-.27l-3.42-1.972a.544.544 0 0 0-.454 0l-2.759 1.593c-.11.073-.098.183 0 .257l3.421 1.972Zm-11.979-14.247-2.759 1.593c-.11.061-.098.183 0 .257l3.421 1.985a.496.496 0 0 0 .454 0l2.759-1.593c.11 0 .098-.184 0-.257l-3.421-1.973a.536.536 0 0 0-.417-.012h-.037Zm20.108-11.601-2.759 1.593c-.11.061-.098.183 0 .257l3.421 1.985a.497.497 0 0 0 .454 0l2.758-1.581c.111-.073.099-.196 0-.269l-3.42-1.973a.555.555 0 0 0-.417-.012h-.037Zm-16.05 9.323-2.758 1.592c-.11 0-.098.184 0 .257l3.421 1.973a.508.508 0 0 0 .453 0l2.759-1.593c.11-.061.098-.184 0-.257l-3.421-1.972a.486.486 0 0 0-.454 0Zm20.108-11.601-2.746 1.592c-.123 0-.11.184 0 .257l3.421 1.973a.509.509 0 0 0 .453 0l2.759-1.593c.11-.061.098-.184 0-.257l-3.421-1.972a.465.465 0 0 0-.466-.037v.037Zm-8.043 4.643-2.759 1.58c-.11.073-.098.184 0 .269l3.421 1.973c.071.032.149.05.227.05a.556.556 0 0 0 .227-.05l2.759-1.593c.11-.073.098-.184 0-.269l-3.421-1.973a.492.492 0 0 0-.454-.024v.037Zm-4.021 2.315-2.759 1.592c-.11.062-.098.184 0 .258l3.421 1.972a.509.509 0 0 0 .453 0l2.759-1.593c.11-.061.098-.183 0-.257l-3.421-1.984a.491.491 0 0 0-.453-.025v.037Zm-4.022 2.327-2.759 1.581c-.11.073-.098.183 0 .269l3.421 1.972a.486.486 0 0 0 .454 0l2.758-1.58c.111-.073.099-.184 0-.269l-3.42-1.973a.494.494 0 0 0-.454-.036v.036Zm21.518 3.369 2.746-1.58c.123-.074.111-.184 0-.27l-3.42-1.972a.497.497 0 0 0-.454 0l-2.783 1.544c-.111.073-.098.183 0 .269l3.421 1.972a.49.49 0 0 0 .49 0v.037Zm34.331-35.611-2.759 1.592c-.111.062-.098.184 0 .258l3.421 1.972a.508.508 0 0 0 .453 0l2.759-1.593c.11 0 .098-.183 0-.257l-3.421-1.972a.462.462 0 0 0-.417-.037l-.036.037Zm-4.905 2.805-2.759 1.593c-.11.061-.098.183 0 .257l3.421 1.972a.5.5 0 0 0 .454 0l2.759-1.592c.11 0 .098-.184 0-.258l-3.421-1.972a.51.51 0 0 0-.331-.037l-.123.037Zm8.889-5.121-2.636 1.544c-.11.073-.098.184 0 .269l3.421 1.973a.497.497 0 0 0 .454 0l2.758-1.581c.111-.073.098-.183 0-.269l-3.42-1.972a.486.486 0 0 0-.503 0l-.074.036Zm-20.206 21.806 2.759-1.593c.11-.073.098-.183 0-.269l-3.421-1.972a.486.486 0 0 0-.453 0l-2.759 1.58c-.11.073-.098.196 0 .269l3.421 1.973a.543.543 0 0 0 .527-.025l-.074.037Zm24.755-24.133a.496.496 0 0 0-.453 0l-2.759 1.592c-.111 0-.098.184 0 .258l3.421 1.972a.508.508 0 0 0 .453 0l2.759-1.593c.11-.061.098-.183 0-.257l-3.421-1.972Zm-38.842 37.914 2.758-1.592c.111 0 .098-.184 0-.257l-3.421-1.973a.508.508 0 0 0-.453 0l-2.783 1.556c-.111.061-.099.184 0 .257l3.42 1.973a.509.509 0 0 0 .479.024v.012Zm49.325-28.457 2.747-1.58c.122-.074.11-.184 0-.27l-3.421-1.972a.51.51 0 0 0-.466 0l-2.746 1.58c-.123.074-.099.184 0 .27l3.384 1.948a.487.487 0 0 0 .502.012v.012Zm-8.913-.49 2.758-1.592c.111-.074.098-.184 0-.27l-3.421-1.972a.482.482 0 0 0-.453 0l-2.734 1.556c-.111.073-.098.183 0 .269l3.42 1.972a.528.528 0 0 0 .43.025v.012Zm3.322-6.125a.537.537 0 0 0-.453 0l-2.759 1.592c-.11.062-.098.184 0 .258l3.421 1.984a.486.486 0 0 0 .453 0l2.759-1.58c.11-.074.098-.196 0-.27l-3.421-1.984Zm.846-.49 8.313 4.79a.512.512 0 0 0 .454 0l2.746-1.593c.123-.061.111-.183 0-.257l-8.313-4.79a.47.47 0 0 0-.453 0l-2.759 1.593c-.135.024-.123.147.012.22v.037Zm-9.343 5.108-2.758 1.593c-.111 0-.098.184 0 .257l3.421 1.972a.495.495 0 0 0 .453 0l2.759-1.592c.11-.061.098-.184 0-.257l-3.421-1.973a.498.498 0 0 0-.454-.036v.036Zm-30.272 17.469-2.734 1.544c-.11.073-.098.183 0 .269l3.421 1.972a.486.486 0 0 0 .453 0l2.759-1.58c.111-.073.098-.184 0-.269l-3.421-1.973a.498.498 0 0 0-.478 0v.037Zm39.885-13.144a.509.509 0 0 0 .454 0l2.746-1.593c.123-.061.11-.184 0-.257l-3.421-1.972a.483.483 0 0 0-.466 0l-2.746 1.592c-.123 0-.098.184 0 .257l3.433 1.973Zm-35.863 10.817-2.759 1.592c-.11.061-.098.184 0 .257l3.421 1.973a.509.509 0 0 0 .454 0l2.758-1.593c.111 0 .098-.184 0-.257l-3.421-1.972a.506.506 0 0 0-.453-.037v.037Zm-29.549 26.95a.496.496 0 0 0 .454 0l2.746-1.592c.123-.062.11-.184 0-.258l-3.421-1.972a.52.52 0 0 0-.466 0l-2.746 1.593c-.123.061-.098.183 0 .257l3.433 1.972Zm-6.633-6.101-2.747 1.581c-.122.073-.098.184 0 .269l3.421 1.973a.497.497 0 0 0 .454 0l2.746-1.581c.123-.073.111-.183 0-.269l-3.421-1.973a.52.52 0 0 0-.453 0Zm11.133 3.676 2.746-1.581c.123-.073.111-.183 0-.269l-3.421-1.973a.522.522 0 0 0-.466 0l-2.746 1.581c-.123.073-.098.184 0 .269l3.421 1.973a.497.497 0 0 0 .441.049l.025-.049Zm4.021-2.316 2.747-1.58c.122-.074.11-.196 0-.27l-3.421-1.972a.567.567 0 0 0-.466 0l-2.746 1.593c-.123.061-.098.183 0 .257l3.42 1.984a.484.484 0 0 0 .442.037l.024-.049Zm4.022-2.315 2.746-1.593c.123-.061.111-.183 0-.257l-3.42-1.984a.513.513 0 0 0-.466 0l-2.747 1.592c-.122.061-.098.184 0 .257l3.421 1.973a.547.547 0 0 0 .441.061l.025-.049Zm-15.155-1.421-2.746 1.592c-.123 0-.098.184 0 .258l3.421 1.984a.486.486 0 0 0 .453 0l2.747-1.58c.122-.074.11-.196 0-.27l-3.421-1.972a.575.575 0 0 0-.478.037l.024-.049Zm4.022-2.315-2.771 1.666c-.123.061-.098.183 0 .257l3.421 1.972a.496.496 0 0 0 .453 0l2.747-1.592c.123-.062.11-.184 0-.258l-3.421-1.972a.492.492 0 0 0-.454-.024l.025-.049Zm16.099-9.286-2.759 1.592c-.11 0-.098.184 0 .258l3.421 1.984a.482.482 0 0 0 .453 0l2.759-1.58c.11-.074.098-.196 0-.27l-3.494-1.911a.541.541 0 0 0-.405-.024l.025-.049Zm-4.022 2.328-2.759 1.58c-.11.073-.098.196 0 .269l3.421 1.973c.071.032.149.05.227.05a.556.556 0 0 0 .227-.05l2.746-1.593c.123-.073.111-.184 0-.269l-3.433-1.911a.486.486 0 0 0-.454 0l.025-.049Zm8.043-4.643-2.759 1.592c-.11.061-.098.184 0 .257l3.421 1.973a.512.512 0 0 0 .454 0l2.759-1.593c.11-.061.098-.184 0-.257l-3.421-1.972a.492.492 0 0 0-.417.049l-.037-.049Zm-16.098 9.285-2.747 1.581c-.123.073-.098.183 0 .269l3.421 1.972a.486.486 0 0 0 .454 0l2.746-1.58c.123-.073.11-.184 0-.269l-3.421-1.973a.512.512 0 0 0-.478.049l.025-.049Zm4.021-2.327-2.746 1.592c-.123.062-.098.184 0 .258l3.42 1.972a.515.515 0 0 0 .454 0l2.747-1.593c.122 0 .11-.183 0-.257l-3.421-1.972a.525.525 0 0 0-.478.049l.024-.049Zm-1.974 16.93 2.759-1.581c.11-.073.098-.183 0-.269l-3.421-1.972a.486.486 0 0 0-.454 0l-2.758 1.58c-.111.073-.098.184 0 .269l3.42 1.973a.502.502 0 0 0 .43.049l.024-.049Zm-24.644-2.977-3.421-1.972a.498.498 0 0 0-.454 0l-2.758 1.678c-.11.061-.099.184 0 .257l3.42 1.972a.497.497 0 0 0 .454 0l2.759-1.592c.122-.098.11-.221-.025-.294l.025-.049Zm6.375 1.96-3.433-1.972a.485.485 0 0 0-.453 0l-4.23 2.45c-.123.061-.099.183 0 .257l3.42 1.984a.485.485 0 0 0 .454 0l4.23-2.45c.135-.073.123-.073-.012-.22l.024-.049Zm-11.672-5.758-3.42-1.972a.485.485 0 0 0-.455 0l-3.396 1.948c-.11.073-.098.183 0 .269l3.482 2.034a.497.497 0 0 0 .454 0l3.396-1.948c.061-.086.05-.196-.086-.282l.025-.049Zm2.6-1.494a.51.51 0 0 0 .453 0l2.746-1.593c.123-.061.11-.184 0-.257l-3.433-1.972a.497.497 0 0 0-.453 0l-2.747 1.592c-.122.061-.11.184 0 .257l3.433 1.973Zm15.019 9.469-3.433-1.984a.486.486 0 0 0-.454 0l-5.26 3.087c-.122.073-.11.183 0 .269l3.421 1.972a.51.51 0 0 0 .466 0l5.284-3.05c.099-.049.086-.171-.049-.245l.025-.049Zm2.979 3.92-3.421-1.984a.482.482 0 0 0-.453 0l-3.396 1.947c-.111.074-.099.184 0 .27l3.42 1.972a.486.486 0 0 0 .454 0l3.396-1.948c.135-.073.135-.073-.024-.208l.024-.049Zm11.906-30.625a.536.536 0 0 0 .453 0l2.747-1.593c.122 0 .11-.184 0-.257l-3.421-1.985a.522.522 0 0 0-.466 0l-2.746 1.581c-.123.073-.098.196 0 .269l3.433 1.985Zm-8.093 4.679a.486.486 0 0 0 .454 0l2.747-1.58c.122-.074.11-.184 0-.27l-3.434-1.972a.493.493 0 0 0-.453 0l-2.747 1.58c-.122.074-.11.184 0 .27l3.433 1.972Zm-17.84 10.29a.485.485 0 0 0 .454 0l2.747-1.58c.123-.073.11-.184 0-.269l-3.42-1.911a.51.51 0 0 0-.467 0l-2.746 1.58c-.123.073-.098.184 0 .269l3.433 1.911Zm21.862-12.617a.471.471 0 0 0 .454 0l2.746-1.593c.123-.061.11-.184 0-.257l-3.433-1.972a.496.496 0 0 0-.454 0l-2.746 1.592c-.123.061-.11.184 0 .257l3.433 1.973Zm-8.055 4.643a.535.535 0 0 0 .466 0l2.746-1.593c.123-.061.098-.184 0-.257l-3.421-1.973a.509.509 0 0 0-.453 0l-2.747 1.593c-.123 0-.11.184 0 .257l3.409 1.973Zm2.452 24.034a.538.538 0 0 0-.466 0l-4.23 2.451c-.111 0-.098.183 0 .257l3.421 1.972a.536.536 0 0 0 .453 0l4.23-2.45c.123-.061.111-.184 0-.257l-3.408-1.973Zm-8.227-20.702a.551.551 0 0 0 .453 0l2.747-1.593c.122-.073.11-.184 0-.257l-3.421-1.985a.522.522 0 0 0-.466 0l-2.746 1.581c-.123.073-.098.196 0 .269l3.433 1.985Zm-4.022 2.315a.51.51 0 0 0 .454 0l2.746-1.593c.123 0 .111-.183 0-.257l-3.42-1.972a.523.523 0 0 0-.466 0l-2.747 1.592c-.123.062-.098.184 0 .258l3.433 1.972Zm86.783-24.599a.54.54 0 0 0-.454 0l-6.78 3.908c-.11.074-.098.184 0 .27l3.421 1.972a.537.537 0 0 0 .453 0l6.781-3.908c.11-.073.098-.196 0-.269l-3.421-1.973Zm-8.889 5.133a.512.512 0 0 0-.454 0l-2.759 1.593c-.11.061-.098.184 0 .257l3.421 1.972a.5.5 0 0 0 .454 0l2.759-1.592c.11 0 .098-.184 0-.257l-3.421-1.973Zm-54.574 30.062 2.759-1.592c.11-.061.098-.184 0-.257l-3.421-1.973a.509.509 0 0 0-.453 0l-2.759 1.593c-.11.061-.098.184 0 .257l3.421 1.972a.46.46 0 0 0 .49 0h-.037Zm46.531-25.431a.486.486 0 0 0-.454 0l-2.759 1.58c-.11.074-.098.196 0 .27l3.421 1.972a.54.54 0 0 0 .454 0l2.758-1.593c.111 0 .098-.183 0-.257l-3.42-1.972Zm20.954-12.079a.466.466 0 0 0-.454 0l-2.759 1.593c-.11.061-.098.183 0 .257l3.482 1.948a.512.512 0 0 0 .454 0l2.759-1.593c.11-.061.098-.184 0-.257l-3.482-1.948Zm7.442-.355-8.276-4.79a.54.54 0 0 0-.454 0l-2.746 1.593c-.123.061-.111.183 0 .257l8.313 4.802a.493.493 0 0 0 .453 0l2.759-1.58c.135-.086.135-.172-.012-.282h-.037Zm-43.428 21.107a.498.498 0 0 0-.454 0l-3.396 1.948c-.111.073-.098.184 0 .269l3.421 1.973a.493.493 0 0 0 .453 0l3.397-1.948c.11-.074.098-.184 0-.27l-3.421-1.972Zm10.164-5.856a.535.535 0 0 0-.466 0l-4.23 2.45c-.11.074-.098.196 0 .27l3.421 1.972a.537.537 0 0 0 .454 0l4.23-2.45c.122-.061.11-.184 0-.257l-3.409-1.985Zm-19.483 11.234a.495.495 0 0 0-.453 0l-22.634 13.046c-.123.062-.11.184 0 .258l3.421 1.972a.52.52 0 0 0 .466 0l22.646-13.071c.122 0 .098-.184 0-.257l-3.446-1.948Zm-23.921 13.794a.485.485 0 0 0-.453 0l-3.384 1.947c-.123.074-.111.184 0 .27l3.433 1.972a.486.486 0 0 0 .453 0l3.384-1.948c.123-.073.098-.183 0-.269l-3.433-1.972Zm28.581-16.489a.486.486 0 0 0-.454 0l-3.384 1.948c-.123.073-.11.183 0 .269l3.421 1.972a.55.55 0 0 0 .466 0l3.384-1.96c.11 0 .098-.183 0-.257l-3.433-1.972Zm-33.203 19.196a.486.486 0 0 0-.454 0l-3.384 1.948c-.122.073-.098.183 0 .269l3.421 1.973a.555.555 0 0 0 .454 0l3.384-1.961c.122-.061.11-.183 0-.257l-3.421-1.972Zm42.558-24.501a.512.512 0 0 0-.454 0l-3.396 1.961c-.111.061-.098.183 0 .257l3.421 1.972a.495.495 0 0 0 .453 0l3.396-1.96c.111-.061.099-.184 0-.257l-3.42-1.973Zm14.394-8.366a.537.537 0 0 0-.454 0l-2.758 1.592c-.111.074-.098.184 0 .257l3.42 1.985a.497.497 0 0 0 .454 0l2.759-1.58c.11-.074.098-.196 0-.27l-3.421-1.984Zm8.73-6.444 2.746-1.593c.123-.061.098-.183 0-.257l-3.421-1.972a.495.495 0 0 0-.453 0l-2.747 1.592c-.122.062-.11.184 0 .258l3.421 1.972a.523.523 0 0 0 .454 0Zm-18.674-.515 2.747-1.58c.122-.073.11-.196 0-.269l-3.421-1.973a.567.567 0 0 0-.466 0l-2.746 1.593c-.123.073-.098.184 0 .257l3.42 1.985a.493.493 0 0 0 .466-.013Zm-8.447 16.146 8.043-4.643c.11 0 .098-.183 0-.257l-3.421-1.984a.486.486 0 0 0-.454 0l-8.043 4.642c-.122 0-.11.184 0 .258l3.421 1.972a.52.52 0 0 0 .454.012Zm22.609-13.328a.51.51 0 0 0 .466 0l2.746-1.58c.123-.074.098-.184 0-.27l-3.421-1.972a.486.486 0 0 0-.453 0l-2.759 1.629c-.123.074-.11.184 0 .27l3.421 1.923Zm-4.426-2.805 2.746-1.581c.123-.073.11-.196 0-.269l-3.433-1.972a.54.54 0 0 0-.454 0l-2.746 1.592c-.123.061-.111.184 0 .257l3.421 1.985c.075.041.16.062.246.059a.485.485 0 0 0 .244-.071h-.024Zm-22.205 18.449 2.746-1.581c.123-.073.099-.184 0-.269l-3.42-1.973a.552.552 0 0 0-.454 0l-2.746 1.593c-.123.073-.111.184 0 .269l3.42 1.973a.523.523 0 0 0 .479-.012h-.025Zm17.766-10.487a.463.463 0 0 0 .454 0l2.758-1.592c.111-.061.099-.184 0-.257l-3.469-1.985a.5.5 0 0 0-.454 0l-2.759 1.593c-.11 0-.098.183 0 .257l3.47 1.984Zm-37.862 22.051 2.759-1.581c.11-.073.098-.183 0-.269l-3.421-1.972a.537.537 0 0 0-.453 0l-2.759 1.592c-.11.074-.098.184 0 .27l3.47 1.96a.498.498 0 0 0 .404 0Zm4.022-2.316 2.759-1.592c.11-.061.098-.184 0-.257l-3.507-1.96a.496.496 0 0 0-.454 0l-2.758 1.592c-.111 0-.098.184 0 .257l3.42 1.973a.502.502 0 0 0 .54.024v-.037Zm-8.043 4.643 2.758-1.592c.111 0 .099-.184 0-.258l-3.42-1.984a.486.486 0 0 0-.454 0l-2.759 1.58c-.11.074-.098.196 0 .27l3.421 1.972a.547.547 0 0 0 .454.049v-.037Zm16.098-9.285 2.747-1.593c.11-.061.098-.184 0-.257l-3.421-1.972a.497.497 0 0 0-.454 0l-2.746 1.592c-.123.061-.11.184 0 .257l3.421 1.973a.494.494 0 0 0 .453.036v-.036Zm-4.033 2.315 2.758-1.58c.111-.074.098-.184 0-.27l-3.421-1.972a.482.482 0 0 0-.453 0l-2.759 1.58c-.11.074-.098.184 0 .27l3.421 1.972a.488.488 0 0 0 .454.037v-.037Zm8.055-4.631 2.746-1.592c.123 0 .098-.184 0-.257l-3.42-1.985a.486.486 0 0 0-.454 0l-2.746 1.58c-.123.074-.111.196 0 .27l3.42 1.972a.564.564 0 0 0 .454.049v-.037Zm16.846-35.219a.497.497 0 0 0 .454 0l2.759-1.58c.11-.074.098-.184 0-.27l-.907-.527a.525.525 0 0 0-.466 0l-2.747 1.593c-.122.061-.098.184 0 .257l.907.527Zm-19.703 12.814a.497.497 0 0 0 .454 0l2.759-1.581c.11-.073.098-.183 0-.269l-3.421-1.972a.486.486 0 0 0-.454 0l-2.759 1.58c-.11.073-.098.184 0 .269l3.421 1.973Zm8.043-4.643a.54.54 0 0 0 .454 0l2.759-1.593c.11 0 .098-.183 0-.257l-3.421-1.985a.497.497 0 0 0-.454 0l-2.758 1.581c-.111.073-.099.196 0 .269l3.42 1.985Zm-12.947 7.472a.537.537 0 0 0 .453 0l2.747-1.592c.123 0 .098-.184 0-.257l-3.421-1.985a.497.497 0 0 0-.454 0l-2.746 1.58c-.123.074-.11.196 0 .27l3.421 1.984Zm8.926-5.157a.46.46 0 0 0 .453 0l2.722-1.519c.111-.061.098-.184 0-.257l-3.42-1.972a.503.503 0 0 0-.454 0l-2.759 1.592c-.11.061-.098.184 0 .257l3.458 1.899Zm-16.982 9.8a.513.513 0 0 0 .466 0l2.747-1.58c.122-.074.098-.184 0-.27l-3.421-1.972a.497.497 0 0 0-.454 0l-2.746 1.58c-.123.074-.111.184 0 .27l3.408 1.972Zm4.022-2.315a.51.51 0 0 0 .466 0l2.746-1.593c.123-.061.098-.183 0-.257l-3.42-1.972a.502.502 0 0 0-.454 0l-2.747 1.592c-.122 0-.11.184 0 .258l3.409 1.972Zm20.598-13.328a.497.497 0 0 0 .454 0l2.746-1.581c.123-.073.111-.196 0-.269l-.907-.527a.522.522 0 0 0-.466 0l-2.746 1.58c-.123.074-.098.184 0 .27l.919.527Zm12.065-6.971a.46.46 0 0 0 .454 0l2.758-1.592c.111-.061.099-.184 0-.257l-.907-.527a.51.51 0 0 0-.466 0l-2.746 1.58c-.123.074-.098.184 0 .27l.907.526Zm7.185 4.153a.537.537 0 0 0 .454 0l2.758-1.592c.111-.074.098-.184 0-.27l-3.42-1.972a.489.489 0 0 0-.454 0l-2.759 1.58c-.11.074-.098.184 0 .27l3.421 1.984Zm11.108 10.817 2.747-1.592c.122-.074.098-.184 0-.27l-3.421-1.972a.486.486 0 0 0-.454 0l-2.746 1.58c-.123.074-.11.184 0 .27l3.384 1.984a.56.56 0 0 0 .49 0Zm-26.336-10.315a.496.496 0 0 0 .454 0l2.758-1.592c.111 0 .098-.184 0-.257l-.907-.527a.524.524 0 0 0-.466 0l-2.746 1.592c-.123 0-.099.184 0 .258l.907.526ZM125.8 173.618a.535.535 0 0 0 .466 0l2.746-1.593c.123 0 .098-.183 0-.257l-3.421-1.972a.495.495 0 0 0-.453 0l-2.747 1.592c-.122 0-.11.184 0 .258l3.409 1.972Z"/><path fill="#455A64" d="M49.721 189.078a6.835 6.835 0 0 1-2.98-4.998l-5.136-85.875a6.12 6.12 0 0 1 2.93-5.243l99.313-57.319a6.274 6.274 0 0 1 5.493 0 6.875 6.875 0 0 1 2.98 5.01l5.137 85.875a6.12 6.12 0 0 1-2.759 5.108l-99.313 57.319a6.34 6.34 0 0 1-5.665.123Z"/><path fill="#fff" d="M49.721 189.078a6.835 6.835 0 0 1-2.98-4.998l-5.136-85.875a6.12 6.12 0 0 1 2.93-5.243l99.313-57.319a6.274 6.274 0 0 1 5.493 0 6.875 6.875 0 0 1 2.98 5.01l5.137 85.875a6.12 6.12 0 0 1-2.759 5.108l-99.313 57.319a6.34 6.34 0 0 1-5.665.123Z" opacity=".4"/><path fill="#455A64" d="m49.893 96.27 99.314-57.319a1.937 1.937 0 0 1 3.163 1.703l5.137 85.874a6.12 6.12 0 0 1-2.758 5.108l-99.314 57.319a1.943 1.943 0 0 1-2.938-.597 1.936 1.936 0 0 1-.213-1.106l-5.137-85.886a6.026 6.026 0 0 1 2.746-5.096Z"/><path fill="#fff" d="m52.247 98.34 95.377-55.016a1.547 1.547 0 0 1 2.361.47c.143.274.2.584.165.89l4.475 74.861a4.907 4.907 0 0 1-2.194 4.08l-94.642 54.611a1.567 1.567 0 0 1-1.727.165 1.569 1.569 0 0 1-.824-1.525l-5.161-74.481a4.77 4.77 0 0 1 2.17-4.055Z"/><path fill="#455A64" d="m318.444 184.288 12.715-7.35a6.816 6.816 0 0 0 3.053-6.701l-4.684-24.329 5.542-3.197 27.685 22.381c.368 1.948 9.061 18.902 6.401 28.298-2.355 8.281-15.94 9.175-17.485 10.045l-33.227-12.777v-6.37Z"/><path fill="#455A64" d="m351.671 203.46 12.702-7.351a6.809 6.809 0 0 0 3.065-6.7l-4.683-24.317 5.529-3.197 5.358 27.82a10.265 10.265 0 0 1-4.622 10.106l-17.349 10.009v-6.37Z"/><path fill="#000" d="m351.671 203.46 12.702-7.351a6.809 6.809 0 0 0 3.065-6.7l-4.683-24.317 5.529-3.197 5.358 27.82a10.265 10.265 0 0 1-4.622 10.106l-17.349 10.009v-6.37Z" opacity=".3"/><path fill="#455A64" d="m318.444 184.288 33.227 19.172v6.394l-33.227-19.171v-6.395Z"/><path fill="#fff" d="m318.444 184.288 33.227 19.172v6.394l-33.227-19.171v-6.395Z" opacity=".4"/><path fill="#455A64" d="M287.952 22.891a6.319 6.319 0 0 0-2.771 5.01V129.75a6.536 6.536 0 0 0 2.955 5.108l127.06 73.293a5.543 5.543 0 0 0 8.496-4.9V101.403a6.508 6.508 0 0 0-2.955-5.109L293.678 23.001a6.334 6.334 0 0 0-5.726-.11Z"/><path fill="#455A64" d="M415.195 208.151a5.547 5.547 0 0 0 7.813-2.007 5.54 5.54 0 0 0 .684-2.893V101.403a6.04 6.04 0 0 0-.858-2.903l-98.872 57.024 91.233 52.627Z"/><path fill="#22343D" d="M415.489 207.931a5.548 5.548 0 0 0 7.772-2.026 5.524 5.524 0 0 0 .688-2.874l-.551-101.861a6.128 6.128 0 0 0-.883-2.903l-98.566 57.576 91.54 52.088Z" opacity=".2"/><path fill="#455A64" d="M285.181 129.75V27.901c0-1.886 1.324-2.646 2.955-1.715l127.06 73.306a6.504 6.504 0 0 1 2.954 5.108v101.849c0 1.886-1.324 2.646-2.954 1.702l-127.06-73.293a6.534 6.534 0 0 1-2.955-5.108Z"/><path fill="#22343D" d="M285.181 129.75V27.901c0-1.886 1.324-2.646 2.955-1.715l127.06 73.306a6.504 6.504 0 0 1 2.954 5.108v101.849c0 1.886-1.324 2.646-2.954 1.702l-127.06-73.293a6.534 6.534 0 0 1-2.955-5.108Z" opacity=".4"/><path fill="#fff" d="m290.318 30.645 122.707 70.782a5.23 5.23 0 0 1 2.354 4.092v90.419c0 1.507-1.054 2.119-2.354 1.372l-122.707-70.782a5.22 5.22 0 0 1-2.367-4.091V32.005c0-1.507 1.055-2.119 2.367-1.36Z"/><path fill="#37474F" d="m271.154 179.572-27.342 15.766a5.53 5.53 0 0 0-2.961 4.9 5.532 5.532 0 0 0 2.961 4.9l88.278 50.924a6.527 6.527 0 0 0 5.91 0l27.342-15.766a5.55 5.55 0 0 0 0-9.8l-88.279-50.924a6.497 6.497 0 0 0-5.909 0Z"/><path fill="#263238" d="M335.045 256.748a5.967 5.967 0 0 0 2.955-.71l27.342-15.766a5.554 5.554 0 0 0 2.947-4.901 5.554 5.554 0 0 0-2.947-4.9l-2.845-1.641h-27.452v27.918Z"/><path fill="#455A64" d="m365.355 230.52-88.279-50.924a6.524 6.524 0 0 0-5.91 0l-27.341 15.778c-1.631.931-1.631 2.45 0 3.406l88.278 50.924a6.577 6.577 0 0 0 5.898 0l27.342-15.778c1.655-.931 1.655-2.462.012-3.406Z"/><path fill="#37474F" d="M352.762 227.996a.537.537 0 0 1-.454 0l-2.709-1.568c-.111 0-.098-.183 0-.257l.895-.514a.496.496 0 0 1 .453 0l2.71 1.567c.11.062.098.184 0 .258l-.895.514ZM348.802 225.718a.537.537 0 0 1-.454 0l-2.709-1.568c-.111 0-.098-.184 0-.257l.895-.515a.524.524 0 0 1 .441 0l2.722 1.568c.111.061.098.184 0 .257l-.895.515ZM356.723 230.287a.474.474 0 0 1-.442 0l-2.709-1.555c-.123-.074-.111-.184 0-.27l.895-.514a.486.486 0 0 1 .454 0l2.709 1.555c.123.074.111.184 0 .27l-.907.514ZM360.696 232.578a.544.544 0 0 1-.454 0l-2.71-1.556c-.122-.061-.098-.183 0-.257l.895-.514a.514.514 0 0 1 .442 0l2.722 1.567c.11.074.098.184 0 .258l-.895.502ZM321.779 214.534l-3.384 1.935c-.122.086-.147.196 0 .27l4.586 2.646a.537.537 0 0 0 .454 0l3.371-1.948c.135-.073.147-.184 0-.257l-4.598-2.646a.468.468 0 0 0-.429 0ZM270.234 184.802l-3.371 1.948c-.135.074-.147.196 0 .257l2.709 1.569a.512.512 0 0 0 .454 0l3.372-1.948c.135-.074.147-.184 0-.258l-2.71-1.555a.503.503 0 0 0-.454-.013ZM274.207 187.093l-3.372 1.948c-.135.074-.147.184 0 .257l2.71 1.568a.537.537 0 0 0 .454 0l3.371-1.947c.135-.074.147-.196 0-.258l-2.722-1.568a.523.523 0 0 0-.441 0ZM266.936 197.947l3.371-1.948c.135-.086.148-.196 0-.257l-2.623-1.617a.462.462 0 0 0-.442 0l-3.372 1.948c-.134.073-.147.196 0 .257l2.588 1.617a.487.487 0 0 0 .478 0ZM270.896 200.177l3.372-1.948c.135-.074.147-.184 0-.257l-2.71-1.556a.486.486 0 0 0-.453 0l-3.372 1.948c-.135.073-.147.196 0 .257l2.722 1.568a.486.486 0 0 0 .441-.012ZM274.869 202.467l3.371-1.948c.123-.073.148-.196 0-.257l-2.709-1.568a.512.512 0 0 0-.454 0l-3.372 1.948c-.134.073-.147.184 0 .257l2.71 1.556a.493.493 0 0 0 .454.012ZM278.829 204.758l3.371-1.948c.135-.085.148-.196 0-.257l-2.721-1.568a.474.474 0 0 0-.442 0l-3.372 1.948c-.134.073-.147.196 0 .257l2.71 1.568a.486.486 0 0 0 .454 0ZM278.167 189.372l-3.372 1.948c-.135.085-.147.196 0 .257l2.722 1.568a.473.473 0 0 0 .442 0l3.371-1.948c.135-.073.147-.196 0-.257l-2.709-1.568a.54.54 0 0 0-.454 0ZM282.128 191.663l-3.409 1.947c-.135.074-.147.196 0 .258l2.71 1.568a.509.509 0 0 0 .453 0l3.372-1.948c.123-.074.147-.184 0-.257l-2.71-1.556a.481.481 0 0 0-.416-.012ZM309.947 218.772c.135-.073.148-.183 0-.257l-2.709-1.556a.497.497 0 0 0-.454 0l-3.372 1.948c-.134.074-.147.196 0 .257l2.71 1.568a.496.496 0 0 0 .454 0l3.371-1.96ZM313.847 209.952l-3.372 1.948c-.135.086-.147.196 0 .257l2.71 1.568a.482.482 0 0 0 .453 0l3.372-1.948c.135-.073.147-.196 0-.257l-2.734-1.58a.495.495 0 0 0-.429.012ZM295.762 220.083l3.371-1.948c.135-.073.148-.196 0-.257l-2.672-1.556a.515.515 0 0 0-.454 0l-3.372 1.936c-.135.086-.147.196 0 .269l2.722 1.556a.46.46 0 0 0 .405 0ZM303.106 220.426c.122-.086.147-.196 0-.269l-2.71-1.556a.486.486 0 0 0-.454 0l-3.371 1.948c-.135.073-.147.196 0 .257l2.709 1.568a.512.512 0 0 0 .454 0l3.372-1.948ZM309.886 207.674l-3.372 1.947c-.135.074-.16.184 0 .258l2.71 1.556a.493.493 0 0 0 .453 0l3.372-1.948c.135-.074.147-.196 0-.258l-2.71-1.568a.523.523 0 0 0-.453.013ZM290.06 196.232l-3.372 1.948c-.135.085-.147.196 0 .257l2.722 1.568a.469.469 0 0 0 .441 0l3.372-1.948c.135-.073.147-.196 0-.257l-2.71-1.568a.537.537 0 0 0-.453 0ZM305.913 205.383l-3.372 1.948c-.135.073-.147.196 0 .257l2.71 1.568a.484.484 0 0 0 .441 0l3.384-1.936c.123-.085.148-.196 0-.269l-2.709-1.556a.487.487 0 0 0-.454-.012ZM286.075 193.953l-3.372 1.948c-.134.074-.147.184 0 .257l2.71 1.556a.486.486 0 0 0 .454 0l3.372-1.948c.134-.073.147-.196 0-.257l-2.722-1.568a.522.522 0 0 0-.442.012ZM294.021 198.523l-3.372 1.948c-.135.073-.147.196 0 .257l2.709 1.568a.487.487 0 0 0 .442 0l3.384-1.948c.122-.073.147-.184 0-.257l-2.71-1.556a.493.493 0 0 0-.453-.012ZM297.993 200.814l-3.335 1.947c-.135.074-.148.184 0 .258l2.709 1.555a.486.486 0 0 0 .454 0l3.372-1.947c.134-.074.147-.196 0-.258l-2.722-1.568a.516.516 0 0 0-.478.013ZM302.015 203.092l-3.372 1.948c-.135.086-.147.196 0 .257l2.71 1.568a.482.482 0 0 0 .453 0l3.372-1.948c.135-.073.147-.196 0-.257l-2.71-1.568a.537.537 0 0 0-.453 0ZM286.762 209.327l3.372-1.947c.123-.074.147-.196 0-.258l-2.71-1.568a.509.509 0 0 0-.453 0l-3.348 1.973c-.134.073-.147.183 0 .257l2.71 1.556a.483.483 0 0 0 .429-.013ZM282.789 207.037l3.372-1.948c.135-.074.147-.184 0-.257l-2.71-1.556a.486.486 0 0 0-.454 0l-3.335 2.021c-.134.074-.147.196 0 .257l2.722 1.568a.474.474 0 0 0 .405-.085ZM275.102 193.182l-3.372 1.935c-.135.086-.147.196 0 .27l2.71 1.555a.482.482 0 0 0 .453 0l3.372-1.947c.123-.074.147-.196 0-.258l-2.71-1.568a.505.505 0 0 0-.453.013ZM271.142 190.891l-3.372 1.948c-.135.073-.147.183 0 .257l2.722 1.568a.51.51 0 0 0 .441 0l3.372-1.948c.135-.073.147-.196 0-.257l-2.71-1.568a.537.537 0 0 0-.453 0ZM305.987 216.531c.135-.074.147-.196 0-.258l-2.71-1.568a.47.47 0 0 0-.441 0l-3.372 1.948c-.135.074-.159.196 0 .257l2.71 1.568a.486.486 0 0 0 .453 0l3.36-1.947ZM298.643 216.188l3.372-1.948c.122-.074.147-.196 0-.257l-2.71-1.569a.509.509 0 0 0-.453 0l-3.372 1.948c-.135.074-.147.184 0 .258l2.709 1.555a.463.463 0 0 0 .454.013ZM294.658 213.872l3.372-1.947c.135-.074.147-.184 0-.258l-2.649-1.47a.493.493 0 0 0-.453 0l-3.372 1.948c-.135.074-.147.196 0 .257l2.71 1.568a.497.497 0 0 0 .392-.098ZM290.722 211.618l3.372-1.948c.135-.085.147-.196 0-.257l-2.722-1.568a.473.473 0 0 0-.441 0l-3.372 1.948c-.135.086-.147.196 0 .257l2.71 1.568a.482.482 0 0 0 .453 0ZM298.888 206.902l-3.372 1.935c-.135.086-.147.196 0 .27l2.71 1.556a.466.466 0 0 0 .441 0l3.384-1.948c.123-.074.147-.196 0-.257l-2.71-1.568a.498.498 0 0 0-.453.012ZM283.034 197.751l-3.372 1.948c-.134.073-.147.184 0 .257l2.722 1.568a.514.514 0 0 0 .442 0l3.372-1.948c.134-.073.147-.196 0-.257l-2.71-1.568a.54.54 0 0 0-.454 0ZM286.995 200.042l-3.372 1.935c-.134.086-.147.196 0 .27l2.71 1.556a.497.497 0 0 0 .454 0l3.371-1.948c.123-.074.148-.196 0-.258l-2.709-1.568a.5.5 0 0 0-.454.013ZM279.074 195.497l-3.372 1.948c-.134.073-.147.196 0 .257l2.71 1.568a.496.496 0 0 0 .454 0l3.372-1.936c.134-.085.147-.196 0-.269l-2.722-1.568a.462.462 0 0 0-.442 0ZM294.928 204.611l-3.372 1.911c-.135.074-.147.184 0 .257l2.71 1.568a.536.536 0 0 0 .453 0l3.372-1.947c.135-.074.147-.196 0-.258l-2.71-1.568a.531.531 0 0 0-.453.037ZM290.98 202.32l-3.372 1.948c-.135.074-.147.196 0 .257l2.709 1.568a.5.5 0 0 0 .454 0l3.372-1.935c.135-.086.147-.196 0-.27l-2.722-1.555a.458.458 0 0 0-.441-.013ZM314.754 215.979l-3.384 1.948c-.123.074-.147.196 0 .257l2.71 1.568a.495.495 0 0 0 .453 0l3.372-1.935c.135-.086.147-.196 0-.27l-2.71-1.555a.458.458 0 0 0-.441-.013ZM318.922 218.282l-5.493 3.173c-.135.074-.147.196 0 .257l2.71 1.568a.537.537 0 0 0 .453 0l5.493-3.172c.135-.074.16-.184 0-.258l-2.709-1.568a.54.54 0 0 0-.454 0Z"/><path fill="#37474F" d="m310.781 219.287-3.371 1.935c-.135.074-.148.196 0 .258l5.897 3.418a.551.551 0 0 0 .454 0l3.371-1.948c.135-.074.148-.196 0-.257l-5.909-3.406a.486.486 0 0 0-.442 0ZM302.86 209.119l-3.372 1.948c-.134.073-.159.196 0 .257l2.71 1.568a.496.496 0 0 0 .454 0l3.372-1.935c.134-.086.147-.196 0-.27l-2.71-1.556a.47.47 0 0 0-.454-.012ZM310.781 213.701l-3.371 1.935c-.135.086-.148.196 0 .258l2.709 1.568a.473.473 0 0 0 .442 0l3.371-1.948c.135-.074.16-.196 0-.257l-2.709-1.568a.502.502 0 0 0-.442.012ZM306.82 211.422l-3.371 1.948c-.135.073-.148.184 0 .257l2.709 1.568a.54.54 0 0 0 .454 0l3.372-1.948c.135-.073.147-.196 0-.257l-2.71-1.568a.54.54 0 0 0-.454 0ZM291.801 217.792l3.372-1.947c.135-.074.147-.196 0-.258l-2.722-1.568a.524.524 0 0 0-.441 0l-3.372 1.948c-.135.074-.147.184 0 .257l2.71 1.568a.537.537 0 0 0 .453 0ZM314.41 214.448l2.71 1.568a.484.484 0 0 0 .441 0l3.372-1.948c.135-.073.16-.184 0-.257l-2.709-1.556a.5.5 0 0 0-.454 0l-3.372 1.948c-.123.061-.123.184.012.245ZM262.338 189.862l4.169 2.45a.497.497 0 0 0 .454 0l3.372-1.948c.122-.073.147-.196 0-.257l-4.169-2.45a.54.54 0 0 0-.454 0l-3.372 1.948c-.11.073-.122.183 0 .257ZM272.723 183.651l3.335 1.923a.5.5 0 0 0 .454 0l3.433-1.96c.135-.085.147-.196 0-.269l-3.347-1.924a.524.524 0 0 0-.441 0l-3.372 1.948c-.196.098-.196.209-.062.282ZM257.201 192.545l5.21 3.013a.544.544 0 0 0 .454 0l3.372-1.948c.135-.085.147-.196 0-.257l-5.223-3.014a.555.555 0 0 0-.454 0l-3.372 1.948c-.086.086-.11.196.013.258ZM305.165 225.78l3.335 1.935a.54.54 0 0 0 .454 0l3.372-1.948c.134-.073.147-.183 0-.257l-3.348-1.923a.493.493 0 0 0-.441 0l-3.372 1.948c-.098.073-.11.183 0 .245ZM252.382 195.338l3.335 1.923a.537.537 0 0 0 .453 0l3.372-1.948c.135-.086.147-.196 0-.257l-3.335-1.936a.537.537 0 0 0-.453 0l-3.372 1.948c-.098.086-.123.196 0 .27ZM302.786 196.82c.135-.074.148-.196 0-.257l-2.722-1.568a.468.468 0 0 0-.441 0l-3.372 1.935c-.135.086-.147.196 0 .27l2.71 1.555a.486.486 0 0 0 .454 0l3.371-1.935ZM310.72 201.389c.123-.073.147-.183 0-.257l-2.71-1.568a.537.537 0 0 0-.453 0l-3.372 1.948c-.135.073-.147.196 0 .257l2.71 1.568a.536.536 0 0 0 .453 0l3.372-1.948ZM306.747 199.172c.135-.086.147-.196 0-.257l-2.709-1.568a.486.486 0 0 0-.454 0l-3.372 1.947c-.135.074-.147.196 0 .258l2.722 1.568a.511.511 0 0 0 .442 0l3.371-1.948ZM314.68 203.68c.135-.074.147-.196 0-.257l-2.722-1.568a.472.472 0 0 0-.441 0l-3.372 1.972c-.135.073-.147.184 0 .257l2.71 1.556a.482.482 0 0 0 .453 0l3.372-1.96ZM299.562 227.825c-.135.074-.147.196 0 .257l4.169 2.451a.55.55 0 0 0 .453 0l3.372-1.948c.135-.074.147-.196 0-.258l-4.181-2.45a.473.473 0 0 0-.441 0l-3.372 1.948ZM297.11 193.586c.123-.074.147-.184 0-.257l-2.636-1.507a.537.537 0 0 0-.453 0l-3.372 1.948c-.135.073-.147.183 0 .257l2.709 1.568a.514.514 0 0 0 .442 0l3.31-2.009ZM293.187 191.307c.135-.086.147-.196 0-.269l-2.71-1.556a.486.486 0 0 0-.454 0l-3.371 1.948c-.135.073-.147.196 0 .257l2.722 1.568a.48.48 0 0 0 .441 0l3.372-1.948ZM285.266 186.726c.123-.074.148-.184 0-.258l-2.709-1.568a.556.556 0 0 0-.227-.05.556.556 0 0 0-.227.05l-3.384 2.022c-.135.073-.147.183 0 .257l2.71 1.568a.537.537 0 0 0 .453 0l3.384-2.021ZM289.226 189.017c.135-.074.147-.196 0-.258l-2.722-1.568a.484.484 0 0 0-.441 0l-3.372 1.936c-.135.086-.147.196 0 .269l2.709 1.556a.486.486 0 0 0 .454 0l3.372-1.935ZM287.841 215.502l3.372-1.936c.135-.086.147-.196 0-.269l-2.685-1.556a.486.486 0 0 0-.454 0l-3.372 1.948c-.134.073-.147.196 0 .257l2.71 1.568a.502.502 0 0 0 .429-.012ZM257.606 203.631c-.135.074-.147.196 0 .257l3.335 1.936a.537.537 0 0 0 .453 0l3.372-1.948c.123-.073.147-.196 0-.257l-3.335-1.997a.497.497 0 0 0-.453 0l-3.372 2.009ZM247.589 197.861c-.123.074-.147.184 0 .257l4.168 2.451a.497.497 0 0 0 .454 0l3.372-1.948c.135-.074.147-.196 0-.258l-4.169-2.45a.509.509 0 0 0-.454 0l-3.371 1.948ZM262.203 206.277c-.134.086-.147.196 0 .258l22.328 12.887a.523.523 0 0 0 .441 0l3.372-1.948c.135-.074.159-.184 0-.257l-22.327-12.9a.515.515 0 0 0-.442 0l-3.372 1.96ZM290.367 222.533c-.135.074-.148.184 0 .257l3.335 1.924a.508.508 0 0 0 .453 0l3.372-1.936c.135-.086.147-.196 0-.269l-3.335-1.924a.54.54 0 0 0-.454 0l-3.371 1.948ZM285.768 219.875c-.122.086-.147.196 0 .269l3.335 1.924a.512.512 0 0 0 .454 0l3.372-1.948c.135-.074.147-.184 0-.257l-3.335-1.924a.484.484 0 0 0-.442 0l-3.384 1.936ZM294.952 225.179c-.134.074-.147.184 0 .257l3.335 1.924a.473.473 0 0 0 .442 0l3.384-1.948c.122-.086.147-.196 0-.257l-3.335-1.936a.54.54 0 0 0-.454 0l-3.372 1.96ZM252.971 200.985c-.135.074-.147.196 0 .257l3.335 1.924a.497.497 0 0 0 .454 0l3.371-1.948c.135-.074.148-.196 0-.257l-3.335-1.924a.493.493 0 0 0-.453 0l-3.372 1.948Z"/><path fill="#37474F" d="m308.978 227.703 3.372-1.948c.135-.073.147-.184 0-.257l-7.884-4.57a.493.493 0 0 0-.453 0l-3.372 1.948c-.135.086-.147.196 0 .258l7.933 4.581a.538.538 0 0 0 .404-.012ZM260.082 199.503l3.371-1.948c.135-.074.148-.196 0-.257l-2.709-1.568a.5.5 0 0 0-.454 0l-3.372 1.935c-.135.086-.147.196 0 .27l2.722 1.555a.478.478 0 0 0 .442.013ZM279.945 210.932l3.372-1.947c.135-.074.147-.184 0-.258l-2.722-1.568a.528.528 0 0 0-.442 0l-3.371 1.948c-.135.074-.148.184 0 .257l2.709 1.568a.54.54 0 0 0 .454 0ZM275.947 208.641l3.372-1.935c.135-.086.147-.196 0-.27l-2.71-1.555a.482.482 0 0 0-.453 0l-3.372 1.947c-.123.074-.147.196 0 .258l2.71 1.568a.497.497 0 0 0 .453-.013ZM283.868 213.223l3.372-1.948c.135-.073.147-.196 0-.257l-2.71-1.568a.496.496 0 0 0-.453 0l-3.335 1.972c-.135.086-.148.196 0 .27l2.721 1.555a.463.463 0 0 0 .405-.024ZM268.015 204.072l3.372-1.948c.135-.073.147-.183 0-.257l-2.722-1.568a.51.51 0 0 0-.441 0l-3.372 1.948c-.135.073-.147.184 0 .257l2.71 1.568a.536.536 0 0 0 .453 0ZM271.975 206.363l3.371-1.948c.135-.073.148-.196 0-.257l-2.709-1.568a.496.496 0 0 0-.454 0l-3.273 1.96c-.135.086-.148.196 0 .269l2.721 1.556c.112.04.235.036.344-.012ZM264.006 201.781l3.372-1.935c.135-.086.147-.196 0-.27l-2.71-1.556a.497.497 0 0 0-.454 0l-3.371 1.948c-.123.074-.148.196 0 .257l2.709 1.568a.494.494 0 0 0 .454-.012ZM327.272 227.139l3.372-1.948c.135-.073.147-.196 0-.257l-2.722-1.568a.513.513 0 0 0-.442 0l-3.371 1.948c-.135.073-.147.184 0 .257l2.709 1.568a.544.544 0 0 0 .454 0ZM332.336 220.61l-3.347 1.948c-.135.073-.148.196 0 .257l2.709 1.568a.54.54 0 0 0 .454 0l3.372-1.948c.135-.073.147-.184 0-.257l-2.722-1.568a.51.51 0 0 0-.466 0ZM336.345 222.901l-3.421 1.996c-.135.086-.147.196 0 .27l2.722 1.556a.473.473 0 0 0 .442 0l3.371-1.948c.135-.074.147-.196 0-.257l-2.709-1.568a.501.501 0 0 0-.405-.049ZM331.232 229.43l3.372-1.948c.135-.073.147-.196 0-.257l-2.71-1.568a.496.496 0 0 0-.454 0l-3.371 1.935c-.135.086-.147.196 0 .27l2.722 1.556a.465.465 0 0 0 .441.012ZM328.363 218.319l-3.371 1.948c-.135.074-.148.196 0 .257l2.709 1.568a.54.54 0 0 0 .454 0l3.372-1.948c.135-.085.147-.195 0-.257l-2.71-1.568a.497.497 0 0 0-.454 0ZM305.693 231.39c-.122.074-.147.184 0 .257l2.71 1.568a.537.537 0 0 0 .453 0l3.372-1.947c.135-.074.147-.184 0-.258l-2.709-1.568a.544.544 0 0 0-.454 0l-3.372 1.948ZM313.65 235.923c-.135.073-.147.196 0 .257l2.722 1.568a.483.483 0 0 0 .441 0l3.372-1.936c.135-.085.147-.196 0-.269l-2.71-1.556a.497.497 0 0 0-.453 0l-3.372 1.936ZM309.69 233.669c-.135.085-.147.196 0 .269l2.709 1.556a.498.498 0 0 0 .454 0l3.372-1.948c.135-.073.147-.196 0-.257l-2.722-1.568a.484.484 0 0 0-.441 0l-3.372 1.948ZM323.312 224.897l3.372-1.935c.135-.086.147-.196 0-.27l-2.71-1.555a.486.486 0 0 0-.453 0l-3.372 1.947c-.135.074-.147.196 0 .258l2.709 1.555a.5.5 0 0 0 .454 0ZM321.006 230.753c.135-.073.147-.196 0-.257l-2.722-1.568a.472.472 0 0 0-.441 0l-3.372 1.935c-.135.086-.147.196 0 .27l2.71 1.556a.497.497 0 0 0 .453 0l3.372-1.936ZM345.271 221.333c.135-.086.147-.196 0-.27l-2.71-1.556a.497.497 0 0 0-.453 0l-3.311 1.961c-.135.073-.147.195 0 .257l2.71 1.568a.509.509 0 0 0 .454 0l3.31-1.96ZM337.351 216.751c.122-.073.147-.184 0-.257l-2.71-1.568a.537.537 0 0 0-.453 0l-3.372 1.948c-.135.073-.147.196 0 .257l2.709 1.641a.544.544 0 0 0 .454 0l3.372-2.021ZM341.311 219.042c.135-.074.147-.196 0-.257l-2.722-1.568a.472.472 0 0 0-.442 0l-3.371 1.935c-.135.086-.147.196 0 .27l2.709 1.555a.486.486 0 0 0 .454 0l3.372-1.935ZM348.79 230.079l-3.372 1.936c-.135.086-.147.196 0 .269l2.71 1.556a.486.486 0 0 0 .454 0l3.371-1.948c.135-.073.148-.196 0-.257l-2.709-1.568a.505.505 0 0 0-.454.012ZM341.458 229.797c-.135.074-.147.184 0 .258l2.71 1.568a.537.537 0 0 0 .454 0l3.371-1.948c.135-.074.148-.184 0-.257l-2.722-1.568a.51.51 0 0 0-.441 0l-3.372 1.947ZM334.947 237.148l3.372-1.948c.134-.074.147-.196 0-.257l-2.722-1.568a.472.472 0 0 0-.442 0l-3.371 1.947c-.135.074-.148.184 0 .258l2.709 1.555a.485.485 0 0 0 .454.013ZM343.702 236.609l3.371-1.948c.135-.074.148-.196 0-.257l-2.709-1.568a.54.54 0 0 0-.454 0l-3.372 1.947c-.134.086-.147.196 0 .258l2.71 1.568a.497.497 0 0 0 .454 0ZM336.639 232.517c-.135.074-.147.184 0 .257l2.71 1.568a.537.537 0 0 0 .453 0l3.372-1.947c.135-.074.147-.196 0-.258l-2.722-1.568a.524.524 0 0 0-.441 0l-3.372 1.948ZM342.28 237.442c.134-.086.147-.196 0-.258l-2.71-1.568a.497.497 0 0 0-.454 0l-3.372 1.948c-.134.074-.147.196 0 .257l2.71 1.569c.071.032.149.05.227.05a.556.556 0 0 0 .227-.05l3.372-1.948ZM318.211 238.569c-.135.073-.147.183 0 .257l6.67 3.847a.497.497 0 0 0 .454 0l3.372-1.948c.134-.074.147-.196 0-.258l-6.683-3.858a.536.536 0 0 0-.453 0l-3.36 1.96ZM326.144 243.138c-.135.074-.147.196 0 .257l2.722 1.568a.472.472 0 0 0 .441 0l3.372-1.935c.135-.086.147-.196 0-.27l-2.71-1.555a.486.486 0 0 0-.453 0l-3.372 1.935ZM334.089 242.158l3.372-1.936c.134-.085.147-.196 0-.269l-2.673-1.58a.486.486 0 0 0-.454 0l-3.372 1.947c-.135.074-.147.196 0 .258l2.722 1.568a.486.486 0 0 0 .405.012ZM340.857 225.498l-3.371 1.948c-.135.073-.147.196 0 .257l2.709 1.568a.487.487 0 0 0 .442 0l3.384-1.936c.122-.085.147-.196 0-.269l-2.71-1.556a.493.493 0 0 0-.454-.012ZM336.038 228.279l-3.372 1.947c-.135.074-.147.196 0 .258l2.71 1.568a.509.509 0 0 0 .454 0l3.371-1.936c.123-.086.148-.196 0-.269l-2.709-1.556a.485.485 0 0 0-.454-.012ZM329.54 235.641c.123-.074.147-.184 0-.257l-2.709-1.568a.54.54 0 0 0-.454 0l-3.372 1.947c-.135.074-.147.184 0 .258l2.71 1.568a.537.537 0 0 0 .454 0l3.371-1.948ZM330.987 234.808l3.372-1.948c.122-.073.147-.184 0-.257l-2.686-1.58a.536.536 0 0 0-.453 0l-3.372 1.947c-.135.074-.147.196 0 .258l2.71 1.568a.509.509 0 0 0 .429.012ZM351.058 236.682l-2.71-1.556a.493.493 0 0 0-.453 0l-8.191 4.729c-.134.073-.147.196 0 .257l2.71 1.568a.54.54 0 0 0 .454 0l8.19-4.728c.135-.086.159-.196 0-.27ZM330.079 245.723l2.71 1.568a.54.54 0 0 0 .454 0l8.19-4.729c.135-.073.147-.183 0-.257l-2.636-1.629a.54.54 0 0 0-.454 0l-8.19 4.728c-.184.098-.196.209-.074.319ZM355.889 234.171c.123-.086.147-.196 0-.27l-2.71-1.555a.486.486 0 0 0-.453 0l-3.372 1.947c-.135.074-.147.196 0 .258l2.71 1.568a.508.508 0 0 0 .453 0l3.372-1.948ZM330.128 239.879l3.372-1.947c.135-.074.147-.196 0-.258l-2.722-1.568a.483.483 0 0 0-.441 0l-3.372 1.936c-.135.086-.147.196 0 .269l2.71 1.556a.48.48 0 0 0 .453.012ZM320.737 207.171c.135-.073.147-.183 0-.257l-2.685-1.617a.51.51 0 0 0-.441 0l-3.335 2.021c-.135.074-.147.184 0 .258l2.709 1.568a.54.54 0 0 0 .454 0l3.298-1.973ZM328.669 211.753c.123-.086.147-.196 0-.27l-2.709-1.555a.489.489 0 0 0-.454 0l-3.372 1.947c-.135.074-.147.196 0 .258l2.71 1.568a.509.509 0 0 0 .453 0l3.372-1.948ZM324.697 209.462c.135-.073.148-.196 0-.257l-2.709-1.568a.496.496 0 0 0-.454 0l-3.372 1.935c-.134.086-.147.196 0 .27l2.722 1.556a.473.473 0 0 0 .442 0l3.371-1.936ZM332.667 214.032c.135-.074.147-.184 0-.258l-2.722-1.568a.523.523 0 0 0-.441 0l-3.372 1.948c-.135.074-.147.184 0 .257l2.71 1.568a.537.537 0 0 0 .453 0l3.372-1.947ZM407.065 47.073v76.282a6.544 6.544 0 0 0 2.955 5.109l88.279 50.924c1.631.943 2.943.184 2.943-1.703v-76.282a6.513 6.513 0 0 0-2.943-5.108L410.02 45.37c-1.63-.943-2.955-.183-2.955 1.703Z"/><path fill="#459CDE" d="m410.02 128.464 88.279 50.924c1.631.943 2.943.184 2.943-1.703v-73.293l-94.177-54.33v73.293a6.526 6.526 0 0 0 2.955 5.109Z"/><path fill="#EBEBEB" d="m414.385 60.671 29.696 17.15a3.907 3.907 0 0 1 1.778 3.063v5.5c0 1.14-.797 1.593-1.778 1.03l-29.696-17.151a3.916 3.916 0 0 1-1.778-3.063v-5.5c0-1.14.797-1.593 1.778-1.029Z"/><path fill="#FAFAFA" d="M496.215 97.336a2.518 2.518 0 0 1 1.128 1.972c0 .722-.502 1.016-1.128.649a2.444 2.444 0 0 1-1.14-1.96c0-.722.503-1.016 1.14-.661ZM491.703 94.739a2.535 2.535 0 0 1 1.14 1.971c0 .723-.515 1.017-1.14.65a2.455 2.455 0 0 1-1.128-1.96c0-.723.503-1.016 1.128-.661ZM487.154 92.142a2.528 2.528 0 0 1 1.128 1.972c0 .722-.503 1.016-1.128.649a2.456 2.456 0 0 1-1.14-1.96c.049-.722.564-1.016 1.14-.661Z"/><path fill="#EBEBEB" d="m414.385 73.448 40.78 23.52a3.892 3.892 0 0 1 1.766 3.014c0 1.102-.785 1.531-1.766.968l-40.78-23.52a3.86 3.86 0 0 1-1.778-3.014c0-1.103.797-1.532 1.778-.968ZM414.385 82.305l40.78 23.52a3.852 3.852 0 0 1 1.766 3.014c0 1.102-.785 1.531-1.766.968l-40.78-23.52a3.89 3.89 0 0 1-1.778-3.014c0-1.103.797-1.532 1.778-.968ZM414.385 91.15l40.78 23.495a3.89 3.89 0 0 1 1.766 3.014c0 1.103-.785 1.531-1.766.968l-40.78-23.52a3.86 3.86 0 0 1-1.778-3.014c0-1.078.797-1.507 1.778-.944ZM414.385 100.007l40.78 23.52a3.855 3.855 0 0 1 1.766 3.014c0 1.09-.785 1.531-1.766.967l-40.78-23.52a3.89 3.89 0 0 1-1.778-3.014c0-1.102.797-1.531 1.778-.967ZM414.974 112.195l78.384 45.216a5.145 5.145 0 0 1 2.379 4.03v7.351c0 1.506-1.079 2.119-2.391 1.359l-78.286-45.24a5.221 5.221 0 0 1-2.367-4.079v-7.35c-.086-1.483.981-2.095 2.281-1.287Z"/><path fill="#FAFAFA" d="m464.238 89.434 29.574 17.151c.514.34.942.795 1.251 1.328.308.534.488 1.132.526 1.747l.123 40.572c0 1.127-.785 1.593-1.766 1.029l-29.695-17.15a3.9 3.9 0 0 1-1.778-3.062V90.451c0-1.127.797-1.531 1.765-1.016Z"/><path fill="#263238" d="M468.015 106.548c4.205 2.45 7.614.453 7.614-4.398a15.488 15.488 0 0 0-2.134-7.35l-9.257-5.378c-.968-.563-1.765-.11-1.765 1.017v10.131a15.847 15.847 0 0 0 5.542 5.978ZM495.651 131.379l-5.567-18.975c-.416-1.446-1.324-1.532-2.023-.196l-8.153 15.545-3.323-8.869c-.527-1.409-1.459-1.445-2.084-.073l-7.725 16.819 27.171 15.68c.821.478 1.508.209 1.704-.551v-19.38Z"/><path fill="#FFB900" d="m193.358 19.927 34.06-19.6c1.3-.76 2.355-.148 2.355 1.359v71.247a5.235 5.235 0 0 1-2.355 4.092l-34.06 19.6c-1.3.748-2.367.135-2.367-1.372v-71.26a5.26 5.26 0 0 1 2.367-4.066Z"/><path fill="#FAFAFA" d="m190.991 34.076 38.782-22.37V62.84l-38.782 22.37V34.075Z"/><path fill="#455A64" d="M207.777 48.996c.417-1.445 1.422-1.592 2.244-.33l4.144 6.394 7.773-23.275c.478-1.433 1.423-1.507 2.121-.172l5.714 11.026v20.127l-31.216 18.008 9.22-31.778ZM190.991 46.926a6.137 6.137 0 0 0 5.542-.735 18.388 18.388 0 0 0 5.895-6.206 18.358 18.358 0 0 0 2.443-8.2 6.49 6.49 0 0 0-1.643-4.765l-12.261 7.056.024 12.85Z"/><path fill="#FAFAFA" d="M196.57 22.168c1.116-.649 2.023-.122 2.023 1.164a4.425 4.425 0 0 1-2.023 3.48c-1.115.636-2.01.122-2.01-1.226a4.42 4.42 0 0 1 2.01-3.418ZM202.444 19.265l11.366-6.554c.465-.257.846-.073.846.43a1.812 1.812 0 0 1-.846 1.396l-11.366 6.553c-.466.27-.846.074-.846-.428a1.813 1.813 0 0 1 .846-1.397ZM202.444 22.389l6.253-3.675c.466-.27.846-.074.846.429a1.813 1.813 0 0 1-.846 1.396l-6.253 3.675c-.466.27-.846.086-.846-.416a1.811 1.811 0 0 1 .846-1.41ZM199.083 89.557h-.662c-.858 0-1.888-.404-1.888-1.642a2.892 2.892 0 0 1 1.312-2.266c.564-.318 1.042-.184 1.226.282a2.88 2.88 0 0 1 1.226-1.69c.724-.417 1.312-.086 1.312.747a7.342 7.342 0 0 1-1.876 3.81l-.65.759ZM209.015 78.887l4.758-2.732c.22-.135.392 0 .392.22v3.357a.888.888 0 0 1-.392.686l-4.758 2.732c-.208.135-.392 0-.392-.22v-3.357a.928.928 0 0 1 .392-.686Z"/><path fill="#FAFAFA" d="M209.738 83.652c0 .44.172.477.368.085l1.055-2.057-1.423.772v1.2ZM225.666 71.341l-2.735-.882v1.31a5.585 5.585 0 0 0-2.672 3.027 2.128 2.128 0 0 0 .266 1.664 2.158 2.158 0 0 0 1.389.957 2.022 2.022 0 0 1-.558-.748 2.025 2.025 0 0 1-.166-.918c.16-1.151.81-1.556 1.741-1.96v1.531l2.735-3.981Z"/><path fill="#404E4C" d="M176.34 2.972v76.283a6.513 6.513 0 0 1-2.943 5.108l-88.279 50.924c-1.63.943-2.942.184-2.942-1.703V57.302a6.5 6.5 0 0 1 2.942-5.108L173.397 1.27c1.631-.944 2.943-.184 2.943 1.702Z"/><path fill="#02897A" d="m173.397 84.363-88.279 50.924c-1.63.943-2.942.184-2.942-1.703V60.291l94.164-54.33v73.293a6.513 6.513 0 0 1-2.943 5.109Z"/><path fill="#EBEBEB" d="m169.032 16.57-29.696 17.15a3.917 3.917 0 0 0-1.256 1.319 3.915 3.915 0 0 0-.521 1.744v5.5c0 1.14.797 1.593 1.777 1.03l29.696-17.151a3.908 3.908 0 0 0 1.778-3.063v-5.5c.013-1.14-.797-1.593-1.778-1.029Z"/><path fill="#FAFAFA" d="M87.203 53.235a2.524 2.524 0 0 0-1.128 1.972c0 .722.503 1.016 1.128.649a2.45 2.45 0 0 0 1.14-1.96c0-.722-.502-1.016-1.14-.66ZM91.715 50.638a2.537 2.537 0 0 0-1.14 1.972c0 .722.514 1.016 1.14.649a2.45 2.45 0 0 0 1.127-1.96c0-.722-.49-1.016-1.127-.661ZM96.215 48.041a2.524 2.524 0 0 0-1.128 1.972c0 .722.503 1.016 1.128.649a2.45 2.45 0 0 0 1.14-1.96c0-.722-.515-1.016-1.14-.661Z"/><path fill="#EBEBEB" d="m169.033 29.347-40.78 23.52a3.892 3.892 0 0 0-1.766 3.014c0 1.103.785 1.531 1.766.968l40.78-23.52a3.86 3.86 0 0 0 1.778-3.014c.012-1.103-.797-1.531-1.778-.968ZM169.033 38.204l-40.78 23.52a3.853 3.853 0 0 0-1.766 3.014c0 1.103.785 1.531 1.766.968l40.78-23.52a3.89 3.89 0 0 0 1.778-3.014c.012-1.103-.797-1.531-1.778-.968ZM169.033 47.049l-40.78 23.496a3.892 3.892 0 0 0-1.766 3.013c0 1.103.785 1.531 1.766.968l40.78-23.52a3.86 3.86 0 0 0 1.778-3.014c.012-1.078-.797-1.507-1.778-.943ZM169.033 55.906l-40.78 23.52a3.854 3.854 0 0 0-1.766 3.014c0 1.09.785 1.53 1.766.967l40.78-23.52a3.888 3.888 0 0 0 1.778-3.014c.012-1.102-.797-1.53-1.778-.967ZM168.444 68.095 90.06 113.31a5.143 5.143 0 0 0-2.342 4.08v7.35c0 1.506 1.079 2.119 2.378 1.359l78.299-45.24a5.238 5.238 0 0 0 2.366-4.079v-7.35c.061-1.531-1.018-2.144-2.317-1.335Z"/><path fill="#FAFAFA" d="m119.179 45.334-29.573 17.15a3.982 3.982 0 0 0-1.778 3.075l-.123 40.573c0 1.127.785 1.592 1.766 1.029l29.696-17.15a3.914 3.914 0 0 0 1.777-3.063V46.35c0-1.127-.797-1.53-1.765-1.016Z"/><path fill="#263238" d="M115.403 62.447c-4.205 2.45-7.614.453-7.614-4.398.085-2.59.818-5.117 2.133-7.35l9.257-5.378c.969-.563 1.766-.11 1.766 1.017V56.47a15.841 15.841 0 0 1-5.542 5.978ZM87.767 87.278l5.566-18.975c.417-1.446 1.324-1.531 2.023-.196l8.154 15.545 3.322-8.869c.528-1.409 1.459-1.445 2.085-.073l7.724 16.82-27.17 15.68c-.834.477-1.508.208-1.704-.552v-19.38Z"/><path fill="#F03E3D" d="M356.882 79.94v70.942c0 .735-.515 1.029-1.14.661l-96.788-55.824a2.553 2.553 0 0 1-1.152-1.997V22.77c0-.735.515-1.03 1.152-.662l96.788 55.788a2.577 2.577 0 0 1 1.14 2.046Z"/><path fill="#37474F" d="m258.954 22.12 96.788 55.775a2.576 2.576 0 0 1 1.14 1.997v5.034l-99.08-57.257v-4.9c0-.723.515-1.017 1.152-.65Z"/><path fill="#FAFAFA" d="M352.713 78.103a2.44 2.44 0 0 1 1.14 1.972c0 .722-.502 1.016-1.14.649a2.445 2.445 0 0 1-1.128-1.96c0-.722.503-1.016 1.128-.661ZM348.214 75.506a2.535 2.535 0 0 1 1.14 1.972c0 .722-.515 1.016-1.14.649a2.445 2.445 0 0 1-1.128-1.96c0-.722.503-1.016 1.128-.661ZM343.702 72.909a2.516 2.516 0 0 1 1.128 1.972c0 .722-.503 1.016-1.128.649a2.456 2.456 0 0 1-1.14-1.96c.012-.722.527-1.016 1.14-.661Z"/><path fill="#fff" d="M276.831 45.211c-4.623-2.67-8.362-.502-8.362 4.815a18.421 18.421 0 0 0 8.362 14.467c4.61 2.658 8.349.502 8.349-4.827a18.447 18.447 0 0 0-8.349-14.455Z"/><path fill="#263238" d="M276.266 49.045c-1.496-.87-2.709-.171-2.709 1.569a5.995 5.995 0 0 0 2.709 4.691c1.496.858 2.71.16 2.71-1.568a5.978 5.978 0 0 0-2.71-4.692ZM271.546 58.613c0-2.842 1.986-3.994 4.451-2.573l1.532.895a9.806 9.806 0 0 1 4.463 7.705v.76a6.358 6.358 0 0 1-5.162-.907 16.37 16.37 0 0 1-5.284-5.218v-.662Z"/><path fill="#fff" d="m292.132 55.036 13.009 7.51a2.993 2.993 0 0 1 1.41 2.327c0 .845-.626 1.164-1.41.71l-13.009-7.509a2.963 2.963 0 0 1-1.41-2.328c0-.845.625-1.127 1.41-.71ZM292.132 62.484l21.199 12.25a2.991 2.991 0 0 1 1.398 2.328c0 .845-.626 1.225-1.398.71l-21.199-12.25a2.962 2.962 0 0 1-1.41-2.328c0-.845.625-1.163 1.41-.71ZM292.132 68.094l21.199 12.25a3.035 3.035 0 0 1 1.398 2.328c0 .846-.626 1.225-1.398.71l-21.199-12.25a3.015 3.015 0 0 1-1.41-2.34c0-.832.625-1.15 1.41-.698ZM351.659 133.156v8.22c0 .747-.515 1.065-1.165.686l-23.295-13.414-2.073-1.226a2.604 2.604 0 0 1-1.226-2.045v-8.232c0-.748.528-1.054 1.226-.686l25.344 14.626a2.593 2.593 0 0 1 1.189 2.071ZM351.659 89.765v35.624c0 .759-.515 1.066-1.165.686L327.199 112.6l-2.073-1.225a2.587 2.587 0 0 1-1.226-2.034v-35.55c0-.76.528-1.054 1.226-.686l25.368 14.59a2.592 2.592 0 0 1 1.165 2.07Z"/><path fill="#263238" d="M323.961 73.79v9.005a12.774 12.774 0 0 0 4.218 4.3c3.555 2.046 6.424.392 6.424-3.675a12.802 12.802 0 0 0-1.557-5.697l-7.896-4.557c-.662-.429-1.189-.171-1.189.625ZM351.659 112.661v12.728c0 .76-.515 1.066-1.165.686L327.198 112.6l6.977-14.7 4.414 9.579 7.037-14.235 6.033 19.417Z"/><path fill="#fff" d="m264.79 63.868 51.937 29.952a3.526 3.526 0 0 1 1.766 2.622c0 .882-.785 1.139-1.766.575l-51.888-29.94a3.523 3.523 0 0 1-1.815-2.658c0-.857.785-1.127 1.766-.55ZM264.79 71.88l51.937 29.927c.478.27.887.647 1.193 1.103.307.455.503.975.573 1.519 0 .882-.785 1.139-1.766.576L264.79 75.077a3.534 3.534 0 0 1-1.766-2.621c0-.882.785-1.14 1.766-.576ZM264.79 79.891l51.937 29.94a3.526 3.526 0 0 1 1.766 2.609c0 .895-.785 1.152-1.766.588l-51.888-29.94a3.534 3.534 0 0 1-1.766-2.62c-.049-.883.736-1.14 1.717-.577ZM264.79 87.915l51.937 29.928a3.528 3.528 0 0 1 1.766 2.621c0 .882-.785 1.14-1.766.576l-51.888-29.927a3.535 3.535 0 0 1-1.766-2.622c-.049-.882.736-1.14 1.717-.576Z"/><path fill="#B9B9B9" d="m224.231 277.047-8.718-5.096a1.437 1.437 0 0 1-.981-1.36 1.432 1.432 0 0 1 .981-1.36l34.061-19.6a5.182 5.182 0 0 1 4.721 0l8.717 5.096a1.432 1.432 0 0 1 0 2.72l-34.061 19.6a5.254 5.254 0 0 1-4.72 0Z"/><path fill="#fff" d="m218.91 269.293 6.633-3.822a3.475 3.475 0 0 1 3.114 0l6.633 3.822a.957.957 0 0 1 .461 1.451.957.957 0 0 1-.461.349l-6.633 3.835a3.49 3.49 0 0 1-3.114 0l-6.633-3.835a.953.953 0 0 1-.461-1.451.953.953 0 0 1 .461-.349Z"/><path fill="#37474F" d="m223.851 270.064 3.604 2.083a.567.567 0 0 0 .761-.209l1.728-2.989c.148-.269 0-.441-.269-.379l-5.763 1.114c-.294.049-.368.233-.061.38Z"/><path fill="#fff" d="M234.297 263.633a2.718 2.718 0 0 0 2.452 0l16.295-9.396c.686-.404.723-1.029.073-1.409a2.705 2.705 0 0 0-2.452 0l-16.307 9.396c-.674.404-.711 1.029-.061 1.409ZM238.662 266.12a2.73 2.73 0 0 0 2.452 0l7.356-4.288c.687-.404.724-1.029.074-1.396a2.684 2.684 0 0 0-2.452 0l-7.357 4.287c-.687.404-.723 1.029-.073 1.397Z"/><path fill="#FF7800" d="m207.605 267.455-8.718-5.084a1.447 1.447 0 0 1-.705-2.204c.175-.245.421-.429.705-.528l34.061-19.6a5.244 5.244 0 0 1 4.721 0l8.717 5.096a1.443 1.443 0 0 1 .973 1.366 1.441 1.441 0 0 1-.973 1.366l-34.061 19.6a5.18 5.18 0 0 1-4.72-.012Z"/><path fill="#fff" d="m202.321 259.713 6.633-3.822a3.412 3.412 0 0 1 3.114 0l6.633 3.822a.957.957 0 0 1 .461 1.451.953.953 0 0 1-.461.35l-6.633 3.809a3.4 3.4 0 0 1-3.114 0l-6.633-3.822a.954.954 0 0 1 0-1.788Z"/><path fill="#37474F" d="m207.262 260.484 3.592 2.071a.57.57 0 0 0 .43.056.56.56 0 0 0 .342-.264l1.729-2.977c.147-.27 0-.441-.27-.38l-5.762 1.103c-.294.061-.331.232-.061.391Z"/><path fill="#fff" d="M217.708 254.041a2.718 2.718 0 0 0 2.452 0l16.295-9.408c.686-.392.723-1.029.073-1.397a2.69 2.69 0 0 0-2.452 0l-16.307 9.408c-.674.429-.711 1.029-.061 1.397ZM222.073 256.54a2.69 2.69 0 0 0 2.452 0l7.356-4.275c.687-.405.724-1.029.074-1.409a2.696 2.696 0 0 0-2.452 0l-7.357 4.287c-.686.38-.723 1.017-.073 1.397Z"/><path fill="#37474F" d="m458.28 268.19 10.875-6.346c1.631-.943 1.631-2.45 0-3.405l-42.496-24.501a6.487 6.487 0 0 0-5.885 0l-10.863 6.346c-1.631.943-1.631 2.45 0 3.405l42.484 24.501a6.496 6.496 0 0 0 5.885 0Z"/><path fill="#F03E3D" d="m434.825 241.313-8.276-4.778a4.278 4.278 0 0 0-3.887 0l-8.276 4.778a1.227 1.227 0 0 0-.533 1.79c.13.199.315.356.533.452l8.276 4.765a4.26 4.26 0 0 0 3.887 0l8.276-4.765a1.23 1.23 0 0 0 .731-1.121 1.222 1.222 0 0 0-.731-1.121Z"/><path fill="#fff" d="m424.182 240.235-3.335 1.923c-.662.38-.588.809.148.956l6.13 1.225c.748.147 1.018-.258.625-.895l-1.692-2.731a1.42 1.42 0 0 0-1.876-.478ZM462.35 261.06a3.413 3.413 0 0 1-3.041 0l-20.328-11.735c-.871-.49-.908-1.225-.098-1.74a3.384 3.384 0 0 1 3.028 0l20.341 11.736c.871.49.907 1.274.098 1.739ZM445.884 257.777a3.371 3.371 0 0 1-3.041 0l-9.195-5.353c-.859-.49-.895-1.225-.086-1.74a3.384 3.384 0 0 1 3.028 0l9.208 5.354c.895.49.895 1.274.086 1.739Z"/><path fill="#37474F" d="m429.528 284.519 10.875-6.357c1.631-.944 1.631-2.45 0-3.406l-42.496-24.5a6.477 6.477 0 0 0-5.886 0l-10.887 6.345c-1.619.943-1.619 2.45 0 3.406l42.496 24.5a6.575 6.575 0 0 0 5.898.012Z"/><path fill="#fff" d="M401.977 255.241a13.501 13.501 0 0 0-12.162 0c-3.36 1.936-3.36 5.084 0 7.02a13.49 13.49 0 0 0 12.162 0c3.36-1.936 3.36-5.084 0-7.02ZM433.635 277.378a3.307 3.307 0 0 1-3.028 0l-20.341-11.736c-.859-.49-.895-1.225-.086-1.74a3.384 3.384 0 0 1 3.028 0l20.341 11.736c.883.49.883 1.274.086 1.74ZM417.181 274.095a3.35 3.35 0 0 1-3.041 0l-9.196-5.354c-.858-.49-.907-1.225-.085-1.739a3.385 3.385 0 0 1 3.028 0l9.208 5.353c.858.502.895 1.274.086 1.74Z"/><path fill="#F03E3D" d="m392.267 260.497-.392-.821c-.515-1.078-.822-2.548.662-3.405a3.968 3.968 0 0 1 3.678 0c.785.453.956 1.114.515 1.666a4.08 4.08 0 0 1 2.894.294 1.117 1.117 0 0 1 .751 1.053 1.12 1.12 0 0 1-.751 1.054c-1.447.833-3.997.673-5.886.379l-1.471-.22Z"/></svg>